<svg xmlns="http://www.w3.org/2000/svg" width="50" height="50" viewBox="0 0 50 50">
    <g fill="#FFF" fill-rule="evenodd">
        <path d="M23.438 26.563h-9.303c-.848 0-1.55-.7-1.55-1.563 0-.869.698-1.563 1.559-1.563h9.293v-9.301c0-.85.7-1.55 1.563-1.55.869 0 1.563.697 1.563 1.558v9.293h9.378c.866 0 1.559.7 1.559 1.563 0 .869-.699 1.563-1.562 1.563H26.562v9.38c0 .865-.699 1.557-1.562 1.557a1.558 1.558 0 0 1-1.563-1.561v-9.377z"/>
        <path d="M50 25C50 11.192 38.807 0 25 0S0 11.192 0 25s11.193 25 25 25 25-11.192 25-25M3.125 25C3.125 12.918 12.919 3.125 25 3.125S46.875 12.918 46.875 25c0 12.081-9.794 21.875-21.875 21.875S3.125 37.081 3.125 25"/>
    </g>
</svg>
