<svg xmlns="http://www.w3.org/2000/svg" width="100" height="100" viewBox="0 0 100 100">
    <g fill="none" fill-rule="evenodd">
        <path fill="#1781E0" d="M46.719 55.243l.557-.556 41.302-41.304a3.13 3.13 0 0 1 4.428-.009 3.116 3.116 0 0 1-.001 4.418L48.929 61.87a3.105 3.105 0 0 1-4.42 0c-.008-.009-.017-.019-.025-.025-.01-.009-.018-.018-.026-.028L33.462 50.822a3.123 3.123 0 0 1 0-4.418 3.118 3.118 0 0 1 4.419 0l8.838 8.839z"/>
        <path fill="#01528A" d="M42.18.623C14.91 4.94-3.698 30.55.622 57.82 4.94 85.09 30.55 103.696 57.82 99.378 80.209 95.83 97.243 77.73 99.7 55.52a50.057 50.057 0 0 0-.323-13.342 3.124 3.124 0 1 0-6.171.979c.618 3.905.709 7.823.281 11.679-2.147 19.426-17.054 35.267-36.643 38.37-23.863 3.777-46.27-12.502-50.049-36.364-3.78-23.862 12.5-46.268 36.362-50.05 8.785-1.39 17.584-.093 25.454 3.616a3.125 3.125 0 0 0 2.663-5.655C62.28.517 52.212-.967 42.18.623"/>
    </g>
</svg>
