<svg id="Calque_1" data-name="Calque 1" xmlns="http://www.w3.org/2000/svg" viewBox="0 0 100 100"><defs><style>.cls-1{fill:#fff;}</style></defs><title>Portefeuille-Blanc</title><g id="Wallet_2" data-name="Wallet 2"><path class="cls-1" d="M34.09,72.73H29.55a2.27,2.27,0,1,0,0,4.55h4.55a2.27,2.27,0,1,0,0-4.55ZM20.45,31.82H15.91a2.27,2.27,0,1,0,0,4.55h4.55a2.27,2.27,0,1,0,0-4.55Zm0,40.91H15.91a2.27,2.27,0,1,0,0,4.55h4.55a2.27,2.27,0,1,0,0-4.55Zm27.27,0H43.18a2.27,2.27,0,0,0,0,4.55h4.55a2.27,2.27,0,0,0,0-4.55ZM70.45,36.36H75a2.27,2.27,0,0,0,0-4.55H70.45a2.27,2.27,0,0,0,0,4.55ZM34.09,31.82H29.55a2.27,2.27,0,1,0,0,4.55h4.55a2.27,2.27,0,1,0,0-4.55ZM79.55,52.27a2.27,2.27,0,1,0,2.27,2.27A2.27,2.27,0,0,0,79.55,52.27ZM75,72.73H70.45a2.27,2.27,0,0,0,0,4.55H75a2.27,2.27,0,0,0,0-4.55ZM90.91,40.91V22.73a9.09,9.09,0,0,0-9.09-9.09H9.09A9.09,9.09,0,0,0,0,22.73V77.27a9.09,9.09,0,0,0,9.09,9.09H81.82a9.09,9.09,0,0,0,9.09-9.09V68.18A9.09,9.09,0,0,0,100,59.09V50A9.09,9.09,0,0,0,90.91,40.91ZM4.55,22.73a4.55,4.55,0,0,1,4.55-4.55H81.82a4.55,4.55,0,0,1,4.55,4.55V24a9,9,0,0,0-4.55-1.26H9.09A9,9,0,0,0,4.55,24ZM86.36,77.27a4.55,4.55,0,0,1-4.55,4.55H9.09a4.55,4.55,0,0,1-4.55-4.55V31.82a4.55,4.55,0,0,1,4.55-4.55H81.82a4.55,4.55,0,0,1,4.55,4.55v9.09H77.27A9.09,9.09,0,0,0,68.18,50v9.09a9.09,9.09,0,0,0,9.09,9.09h9.09Zm9.09-18.18a4.55,4.55,0,0,1-4.55,4.55H77.27a4.55,4.55,0,0,1-4.55-4.55V50a4.55,4.55,0,0,1,4.55-4.55H90.91A4.55,4.55,0,0,1,95.45,50ZM47.73,31.82H43.18a2.27,2.27,0,0,0,0,4.55h4.55a2.27,2.27,0,0,0,0-4.55Zm13.64,0H56.82a2.27,2.27,0,0,0,0,4.55h4.55a2.27,2.27,0,0,0,0-4.55Zm0,40.91H56.82a2.27,2.27,0,0,0,0,4.55h4.55a2.27,2.27,0,0,0,0-4.55Z"/></g></svg>