<svg xmlns="http://www.w3.org/2000/svg" width="100" height="100" viewBox="0 0 100 100">
    <path fill="#FFF" fill-rule="evenodd" d="M34.09 36.353h-4.544a2.272 2.272 0 1 0 0 4.545h4.545a2.271 2.271 0 1 0 0-4.545zm27.274 0h-4.546a2.271 2.271 0 0 0-2.272 2.273 2.27 2.27 0 0 0 2.272 2.272h4.546a2.27 2.27 0 0 0 2.272-2.272 2.271 2.271 0 0 0-2.272-2.273zM47.727 77.262h-4.545a2.273 2.273 0 0 0 0 4.546h4.545a2.272 2.272 0 1 0 0-4.546zm0-40.91h-4.545a2.272 2.272 0 1 0 0 4.546h4.545a2.271 2.271 0 1 0 0-4.545zm47.728 27.274a4.546 4.546 0 0 1-4.546 4.545H77.273a4.546 4.546 0 0 1-4.546-4.545v-9.091a4.547 4.547 0 0 1 4.546-4.546h13.636a4.547 4.547 0 0 1 4.546 4.546v9.09zm-9.091 18.182a4.546 4.546 0 0 1-4.546 4.545H9.09a4.545 4.545 0 0 1-4.545-4.545V36.353a4.545 4.545 0 0 1 4.545-4.545h72.727a4.546 4.546 0 0 1 4.546 4.545v9.09h-9.091a9.09 9.09 0 0 0-9.091 9.092v9.09c0 5.02 4.07 9.092 9.09 9.092h9.092v9.09zM4.546 27.262a4.545 4.545 0 0 1 4.54-4.545l-1.251 4.672a8.977 8.977 0 0 0-3.29 1.134v-1.261zm11.43-12.695l47.376 12.695H12.576l3.4-12.695zm61.692 4.224l.954 7.856-20.472-5.484 19.518-2.372zm8.696 8.47v1.262a8.98 8.98 0 0 0-3.068-1.112l-.56-4.601a4.547 4.547 0 0 1 3.628 4.452zm4.545 18.183V27.262c0-4.896-3.882-8.862-8.731-9.055l-.544-4.477-35.243 4.282L12.76 9l-2.454 9.17H9.09A9.092 9.092 0 0 0 0 27.263v54.546c0 5.02 4.07 9.09 9.09 9.09h72.728a9.09 9.09 0 0 0 9.09-9.09v-9.091A9.091 9.091 0 0 0 100 63.626v-9.091a9.09 9.09 0 0 0-9.091-9.091zm-15.91 31.818h-4.544a2.273 2.273 0 1 0 0 4.546H75a2.272 2.272 0 1 0 0-4.546zm4.546-20.454a2.27 2.27 0 0 0-2.272 2.272 2.27 2.27 0 0 0 2.272 2.273 2.27 2.27 0 0 0 2.273-2.273 2.27 2.27 0 0 0-2.273-2.272zM61.364 77.262h-4.546a2.273 2.273 0 0 0 0 4.546h4.546a2.273 2.273 0 1 0 0-4.546zm-27.273 0h-4.545a2.273 2.273 0 1 0 0 4.546h4.545a2.272 2.272 0 1 0 0-4.546zm36.364-36.364H75a2.271 2.271 0 1 0 0-4.545h-4.545a2.272 2.272 0 1 0 0 4.545zm-50 36.364h-4.546a2.273 2.273 0 0 0 0 4.546h4.546a2.273 2.273 0 1 0 0-4.546zm0-40.91h-4.546a2.272 2.272 0 1 0 0 4.546h4.546a2.27 2.27 0 0 0 2.272-2.272 2.271 2.271 0 0 0-2.272-2.273z"/>
</svg>
