<svg xmlns="http://www.w3.org/2000/svg" width="101" height="100" viewBox="0 0 101 100">
    <path fill="#FFF" fill-rule="evenodd" d="M91.46 27.825l-5.211 5.211-19.283-19.285 5.21-5.21s3.71-3.996 9.642-3.996c7.534 0 13.636 6.106 13.636 13.636 0 3.767-1.526 7.176-3.994 9.644zm-57.37 57.37V68.18a2.272 2.272 0 0 0-2.272-2.272H14.806l48.946-48.944L83.034 36.25 34.09 85.194zm-4.545 2.962l-15.909 3.72v-5.514H8.125l3.718-15.909h17.704v17.703zM81.819 0A18.129 18.129 0 0 0 68.96 5.326L7.6 66.69 0 100l33.31-7.598L94.673 31.04A18.124 18.124 0 0 0 100 18.181C100 8.141 91.86.001 81.82.001z"/>
</svg>
