<svg id="Calque_1" data-name="Calque 1" xmlns="http://www.w3.org/2000/svg" viewBox="0 0 100 100"><defs><style>.cls-1{fill:#fff;}</style></defs><title>i-Blanc-Negatif</title><g id="Info_2x.png" data-name="Info@2x.png"><path class="cls-1" d="M50,0a50,50,0,1,0,50,50A50,50,0,0,0,50,0ZM64.07,81.67q-4.56,1.75-7.28,2.67a19.78,19.78,0,0,1-6.31.92q-5.53,0-8.6-2.62A8.37,8.37,0,0,1,38.81,76a22.9,22.9,0,0,1,.23-3.2,37.38,37.38,0,0,1,.74-3.7L43.58,56c.34-1.25.62-2.44.86-3.56a15.21,15.21,0,0,0,.35-3.07,4.65,4.65,0,0,0-1.06-3.5q-1.06-1-4.07-1a10.9,10.9,0,0,0-3,.44c-1,.3-1.92.58-2.66.85l1-4q3.74-1.48,7.15-2.53a22,22,0,0,1,6.46-1.05q5.49,0,8.47,2.57a8.44,8.44,0,0,1,3,6.7c0,.57-.07,1.57-.21,3a19.72,19.72,0,0,1-.76,3.94l-3.79,13a35.3,35.3,0,0,0-.83,3.58,18.33,18.33,0,0,0-.37,3q0,2.6,1.2,3.54a6.86,6.86,0,0,0,4.14.94,12.21,12.21,0,0,0,3.13-.47,17.74,17.74,0,0,0,2.53-.83ZM63.4,28.74a9.73,9.73,0,0,1-12.79,0,7.65,7.65,0,0,1,0-11.62,9.67,9.67,0,0,1,12.79,0,7.7,7.7,0,0,1,0,11.62Z"/></g></svg>