<svg id="Calque_1" data-name="Calque 1" xmlns="http://www.w3.org/2000/svg" viewBox="0 0 100 100"><defs><style>.cls-1{fill:#1781e0;}</style></defs><title>Publications-BleuClair</title><g id="Notepad_2x.png" data-name="Notepad@2x.png"><path class="cls-1" d="M22.73,40.91H50a2.27,2.27,0,1,0,0-4.55H22.73a2.27,2.27,0,1,0,0,4.55ZM20.45,52.27a2.27,2.27,0,0,0,2.27,2.27H77.27a2.27,2.27,0,1,0,0-4.55H22.73A2.27,2.27,0,0,0,20.45,52.27ZM86.36,9.09H75V2.27a2.27,2.27,0,0,0-4.55,0V9.09H65.91V2.27a2.27,2.27,0,0,0-4.55,0V9.09H56.82V2.27a2.27,2.27,0,0,0-4.55,0V9.09H47.73V2.27a2.27,2.27,0,0,0-4.55,0V9.09H38.64V2.27a2.27,2.27,0,0,0-4.55,0V9.09H29.55V2.27a2.27,2.27,0,0,0-4.55,0V9.09H13.64a4.55,4.55,0,0,0-4.55,4.55V95.45A4.54,4.54,0,0,0,13.64,100H86.36a4.54,4.54,0,0,0,4.55-4.55V13.64A4.55,4.55,0,0,0,86.36,9.09ZM13.64,95.45V81.82L27.27,95.45Zm72.73,0H34.09L13.64,75V13.64H25v6.82a2.27,2.27,0,0,0,4.55,0V13.64h4.55v6.82a2.27,2.27,0,0,0,4.55,0V13.64h4.55v6.82a2.27,2.27,0,0,0,4.55,0V13.64h4.55v6.82a2.27,2.27,0,0,0,4.55,0V13.64h4.55v6.82a2.27,2.27,0,0,0,4.55,0V13.64h4.55v6.82a2.27,2.27,0,0,0,4.55,0V13.64H86.36ZM63.64,63.64H22.73a2.27,2.27,0,1,0,0,4.55H63.64a2.27,2.27,0,1,0,0-4.55Z"/></g></svg>