<svg id="Calque_1" data-name="Calque 1" xmlns="http://www.w3.org/2000/svg" viewBox="0 0 100 100"><defs><style>.cls-1{fill:#fff;}</style></defs><title>Actus-Blanc</title><g id="Newspaper_2x.png" data-name="Newspaper@2x.png"><path class="cls-1" d="M75,27.27A2.27,2.27,0,1,0,72.73,25,2.27,2.27,0,0,0,75,27.27Zm-27.27,0H65.91a2.27,2.27,0,0,0,0-4.55H47.73a2.27,2.27,0,1,0,0,4.55Zm36.36,0A2.27,2.27,0,1,0,81.82,25,2.27,2.27,0,0,0,84.09,27.27Zm0,9.09H65.91a2.27,2.27,0,1,0,0,4.55H84.09a2.27,2.27,0,1,0,0-4.55Zm0,9.09H65.91a2.27,2.27,0,1,0,0,4.55H84.09a2.27,2.27,0,1,0,0-4.55Zm0,9.09H65.91a2.27,2.27,0,1,0,0,4.54H84.09a2.27,2.27,0,1,0,0-4.54ZM29.55,77.27H84.09a2.27,2.27,0,1,0,0-4.54H29.55a2.27,2.27,0,1,0,0,4.54Zm0-9.09H84.09a2.27,2.27,0,1,0,0-4.54H29.55a2.27,2.27,0,1,0,0,4.54ZM95.45,9.09H18.18a4.55,4.55,0,0,0-4.55,4.55v9.09H4.55A4.55,4.55,0,0,0,0,27.27v50A13.64,13.64,0,0,0,13.64,90.91H95.45A4.55,4.55,0,0,0,100,86.36V13.64A4.55,4.55,0,0,0,95.45,9.09Zm0,77.27H13.64a9.09,9.09,0,0,1-9.09-9.09v-50h9.09V75a2.27,2.27,0,0,0,4.55,0V13.64H95.45ZM29.55,59.09H52.27a2.27,2.27,0,0,0,2.27-2.27V38.64a2.27,2.27,0,0,0-2.27-2.27H29.55a2.27,2.27,0,0,0-2.27,2.27V56.82A2.27,2.27,0,0,0,29.55,59.09Zm2.27-18.18H50V54.55H31.82Zm6.82-13.64A2.27,2.27,0,1,0,36.36,25,2.27,2.27,0,0,0,38.64,27.27Zm-9.09,0A2.27,2.27,0,1,0,27.27,25,2.27,2.27,0,0,0,29.55,27.27Z"/></g></svg>