<svg xmlns="http://www.w3.org/2000/svg" viewBox="0 0 100 100"><defs><style>.cls-1{fill:#1781e0;}</style></defs><title>caddie-bleu</title><g id="Icons"><g id="Shopping_Cart" data-name="Shopping Cart"><path class="cls-1" d="M90.83,71h0L99.93,30.1h0a2.18,2.18,0,0,0,.11-.54,2.27,2.27,0,0,0-2.27-2.27H24.86l-3.22-12h0a2.25,2.25,0,0,0-2.14-1.63H2.27a2.27,2.27,0,1,0,0,4.55H17.72l14.2,52.93h0a2.28,2.28,0,0,0,1.27,1.43,9,9,0,0,0-1.37,4.74,9.09,9.09,0,1,0,18.18,0,9,9,0,0,0-1.26-4.55H74a9,9,0,0,0-1.26,4.55,9.09,9.09,0,1,0,18.18,0,9,9,0,0,0-1.37-4.74A2.27,2.27,0,0,0,90.83,71ZM81.58,31.82H94.9l-2,9.09H80.57Zm-55.5,0H41.15l1,9.09H28.52Zm6.1,22.73-2.44-9.09H42.66l1,9.09Zm1.22,4.55H44.18l1,9.09H35.83Zm7.52,22.73a4.55,4.55,0,1,1,4.55-4.55A4.55,4.55,0,0,1,40.91,81.82ZM59.09,68.18H49.76l-1-9.09H59.09Zm0-13.64H48.25l-1-9.09H59.09Zm0-13.64H46.73l-1-9.09H59.09ZM73,68.18H63.64V59.09H74Zm1.51-13.64H63.64V45.45H75.49ZM76,40.91H63.64V31.82H77Zm5.82,40.91a4.55,4.55,0,1,1,4.55-4.55A4.55,4.55,0,0,1,81.82,81.82Zm5-13.64H77.54l1-9.09H88.83ZM79.05,54.55l1-9.09h11.8l-2,9.09Z"/></g></g></svg>