<svg xmlns="http://www.w3.org/2000/svg" viewBox="0 0 100 100"><defs><style>.cls-1{fill:#fff;}</style></defs><title>groupe-blanc</title><g id="Mode_Isolation" data-name="Mode Isolation"><path class="cls-1" d="M98.55,85.9H86.66a1.45,1.45,0,0,1-1.39-1.85A1.5,1.5,0,0,1,87,83h9.84a7.07,7.07,0,0,0-1.68-2.91c-1.65-1.69-5.87-3.24-7.9-4-.56-.2-1-.37-1.27-.48A5.9,5.9,0,0,1,82.55,72a18,18,0,0,1-.26-4.47,1.45,1.45,0,0,1,.28-.8,17.66,17.66,0,0,0,1.49-2.36A10,10,0,0,0,84.76,62a1.45,1.45,0,0,1,1.42-1.26,4.18,4.18,0,0,0,.46-1c.26-1,.05-1.37,0-1.43a1.32,1.32,0,0,1-.81-.79,1.39,1.39,0,0,1,.08-1.16h0A14.62,14.62,0,0,0,86.55,52c.18-3.32,0-4.48-1.71-5.81a4.74,4.74,0,0,0-1.65-.56,1.88,1.88,0,0,1-.75-.36,7.19,7.19,0,0,0-3.71-1.38c-.06,0-3.3-.18-5.22,1.44S70.87,48.86,71,52a14.06,14.06,0,0,0,.7,4.3,1.47,1.47,0,0,1,0,1.17,1.45,1.45,0,0,1-.85.8,2.17,2.17,0,0,0,.05,1.39c.2.78.51,1,.6,1.06A1.3,1.3,0,0,1,72.83,62a10,10,0,0,0,.69,2.42A17.74,17.74,0,0,0,75,66.77a1.46,1.46,0,0,1,.28.8h0A1.52,1.52,0,0,1,73,68.68l-.32-.19a20.41,20.41,0,0,1-1.81-2.9,12.42,12.42,0,0,1-.75-2.34,4.32,4.32,0,0,1-2-2.83,4.26,4.26,0,0,1,.59-4,22,22,0,0,1-.59-4.25c-.23-4.09.82-6.8,3.49-9C74.47,40.76,78.71,41,78.89,41A10.16,10.16,0,0,1,84,42.87a6.71,6.71,0,0,1,2.59,1.08c2.9,2.28,3,4.74,2.8,8.24a21.62,21.62,0,0,1-.59,4.25,4.26,4.26,0,0,1,.59,4,4.31,4.31,0,0,1-2,2.83,12.11,12.11,0,0,1-.75,2.34,17.71,17.71,0,0,1-1.54,2.52,15.29,15.29,0,0,0,.14,3.07A3.08,3.08,0,0,0,87.1,73c.24.1.63.24,1.13.43,2.4.88,6.88,2.52,9,4.68A10.13,10.13,0,0,1,100,84.43a1.45,1.45,0,0,1-1.45,1.48Z"/><path class="cls-1" d="M82.56,85.9H17.72a1.45,1.45,0,0,1-1.45-1.48,15.63,15.63,0,0,1,4.31-9.77c3.31-3.41,10.53-6,14.41-7.47.83-.3,1.49-.54,1.88-.71A6,6,0,0,0,40.33,63a26.28,26.28,0,0,0,.26-5.62A30.42,30.42,0,0,1,38,53.12,20.06,20.06,0,0,1,36.73,49a6,6,0,0,1-3.16-4.26c-.82-3.12.05-5,1.1-6.06a32.54,32.54,0,0,1-1.07-7.27c-.35-6.39,1.26-10.61,5.4-14.09C43.36,13.7,50,14.1,50.24,14.12a15.57,15.57,0,0,1,8.12,3,10.48,10.48,0,0,1,4.07,1.63c4.42,3.48,4.55,7.13,4.24,12.74a32.48,32.48,0,0,1-1.07,7.27c1.05,1,1.92,2.93,1.1,6.06A6,6,0,0,1,63.55,49a19.69,19.69,0,0,1-1.27,4.08,30.49,30.49,0,0,1-2.59,4.21A26.28,26.28,0,0,0,60,63a6,6,0,0,0,3.46,3.52c.4.17,1.06.41,1.89.71,3.87,1.42,11.09,4.06,14.4,7.46h0A15.64,15.64,0,0,1,84,84.43a1.45,1.45,0,0,1-1.45,1.48ZM19.37,83H80.92a12.86,12.86,0,0,0-3.29-6.34c-2.85-2.93-9.92-5.52-13.32-6.77-.9-.33-1.6-.59-2-.77a8.77,8.77,0,0,1-5.08-5.33c-.56-1.84-.41-6.17-.38-7A1.45,1.45,0,0,1,57.1,56a30.4,30.4,0,0,0,2.55-4,17.41,17.41,0,0,0,1.2-4.24,1.45,1.45,0,0,1,1.42-1.26s1.05-.16,1.64-2.4c.74-2.82-.49-3.39-.51-3.39a1.45,1.45,0,0,1-.83-2s.93-2.11,1.22-7.37c.31-5.73-.08-7.9-3.15-10.31a8.51,8.51,0,0,0-3.13-1.11,1.44,1.44,0,0,1-.7-.32A12.68,12.68,0,0,0,50.09,17c-.09,0-5.77-.32-9.21,2.58S36.19,25.77,36.5,31.3c.29,5.26,1.21,7.36,1.22,7.38a1.46,1.46,0,0,1-.84,2c-.08,0-1.23.64-.51,3.39.59,2.24,1.67,2.4,1.71,2.4a1.38,1.38,0,0,1,1.35,1.25,17.56,17.56,0,0,0,1.2,4.24,30.4,30.4,0,0,0,2.55,4,1.45,1.45,0,0,1,.28.79c0,.85.19,5.19-.38,7A8.77,8.77,0,0,1,38,69.13c-.43.18-1.14.44-2,.77-3.4,1.24-10.47,3.83-13.33,6.77A12.87,12.87,0,0,0,19.37,83Z"/><path class="cls-1" d="M13.63,85.9H1.45A1.45,1.45,0,0,1,0,84.43a10.13,10.13,0,0,1,2.79-6.34c2.11-2.17,6.58-3.81,9-4.69.49-.18.89-.32,1.12-.42a3.2,3.2,0,0,0,1.71-1.59,33.26,33.26,0,0,1-7.27-2.3,1.45,1.45,0,0,1,0-2.6c.1-.06,3-1.63,2.46-6.9-.75-8,.69-13.57,4.28-16.48,2.85-2.31,7-2.11,7.21-2.1a10.14,10.14,0,0,1,5.18,1.86,7.53,7.53,0,0,1,2.53,1c3.16,2.28,4.37,7.56,3.61,15.69a8.67,8.67,0,0,0,.86,5.09,1.45,1.45,0,1,1-2.52,1.41,11.48,11.48,0,0,1-1.22-6.77c.64-6.84-.22-11.49-2.43-13.08a5.57,5.57,0,0,0-1.73-.61,1.44,1.44,0,0,1-.66-.31,7.16,7.16,0,0,0-3.77-1.43s-3.28-.14-5.24,1.45c-2.75,2.23-3.86,7.06-3.22,14,.37,4-.81,6.52-2,8a33.94,33.94,0,0,0,5.8,1.47,1.45,1.45,0,0,1,1.21,1.51A7.61,7.61,0,0,1,17.45,72,5.91,5.91,0,0,1,14,75.64c-.27.11-.71.28-1.27.48-2,.74-6.26,2.29-7.91,4A7.1,7.1,0,0,0,3.18,83H13.28a1.45,1.45,0,0,1,1.79,1.36A1.52,1.52,0,0,1,13.63,85.9Z"/></g></svg>