<svg xmlns="http://www.w3.org/2000/svg" viewBox="0 0 100 100"><defs><style>.cls-1{fill:#fff;}</style></defs><title>horloge-blanc</title><g id="Icons"><g id="Clock_1_2x.png" data-name="Clock 1@2x.png"><path class="cls-1" d="M21.61,31a2.27,2.27,0,1,0,.83,3.1A2.27,2.27,0,0,0,21.61,31ZM31.82,18.51a2.27,2.27,0,1,0,3.1.83A2.27,2.27,0,0,0,31.82,18.51Zm2.27,59a2.27,2.27,0,1,0,.83,3.1A2.27,2.27,0,0,0,34.09,77.56ZM65.91,22.45a2.27,2.27,0,1,0-.83-3.1A2.27,2.27,0,0,0,65.91,22.45Zm-50,25.28A2.27,2.27,0,1,0,18.18,50,2.27,2.27,0,0,0,15.91,47.73Zm3.43,17.35a2.27,2.27,0,1,0,3.1.83A2.27,2.27,0,0,0,19.34,65.08ZM50,81.82a2.27,2.27,0,1,0,2.27,2.27A2.27,2.27,0,0,0,50,81.82Zm15.91-4.26a2.27,2.27,0,1,0,3.1.83A2.27,2.27,0,0,0,65.91,77.56ZM84.09,47.73A2.27,2.27,0,1,0,86.36,50,2.27,2.27,0,0,0,84.09,47.73ZM50,0a50,50,0,1,0,50,50A50,50,0,0,0,50,0Zm0,95.45A45.45,45.45,0,1,1,95.45,50,45.45,45.45,0,0,1,50,95.45ZM78.39,31a2.27,2.27,0,1,0,3.1.83A2.27,2.27,0,0,0,78.39,31Zm2.27,34.09a2.27,2.27,0,1,0,.83,3.11A2.27,2.27,0,0,0,80.66,65.08ZM70.45,47.73H58.77a9.08,9.08,0,0,0-6.5-6.5V15.91a2.27,2.27,0,0,0-4.55,0V41.23a9.07,9.07,0,1,0,11,11H70.45a2.27,2.27,0,1,0,0-4.55ZM50,54.55A4.55,4.55,0,1,1,54.55,50,4.55,4.55,0,0,1,50,54.55Z"/></g></g></svg>