<svg xmlns="http://www.w3.org/2000/svg" viewBox="0 0 100 100"><defs><style>.cls-1{fill:#fff;}</style></defs><title>prioritaire-blanc</title><g id="Icons"><g id="Sheild_2x.png" data-name="Sheild@2x.png"><path class="cls-1" d="M57.68,40.83,49.93,20.31,42.18,40.83H21.52L38.31,53.89,30.56,77.13l19.37-14.2L69.3,77.13,61.55,53.89,78.34,40.83Zm-.44,14.49L60.47,65l-7.85-5.76-2.69-2-2.69,2L39.39,65l3.23-9.69,1-3.05-2.54-2-6.33-4.92H45.32l1.11-2.94,3.5-9.26,3.5,9.26,1.11,2.94H65.09L58.76,50.3l-2.54,2ZM90.82,1.65A2.28,2.28,0,0,0,87.62.24C87.44.33,69.69,9.09,50,9.09S12.56.33,12.38.24a2.27,2.27,0,0,0-3.2,1.41C9.09,2,0,29.54,0,56.82,0,85.64,47.55,99.57,49.58,100a2.28,2.28,0,0,0,.85,0c2-.39,49.58-14.32,49.58-43.14C100,29.54,90.91,2,90.82,1.65ZM50,95.41c-4.65-1-45.45-14.8-45.45-38.59,0-22.21,6.2-43.29,8.31-51.36C18.62,8,33.48,13.64,50,13.64S81.38,8,87.14,5.46c2.11,8.06,8.31,29.13,8.31,51.36C95.45,80.58,54.65,94.43,50,95.41Z"/></g></g></svg>