<svg id="Calque_1" data-name="Calque 1" xmlns="http://www.w3.org/2000/svg" viewBox="0 0 100 100"><defs><style>.cls-1{fill:#1781e0;}</style></defs><title>i-BleuClair</title><g id="Info_2x.png" data-name="Info@2x.png"><path class="cls-1" d="M56.68,70.5a4.86,4.86,0,0,1-2.94-.67,3,3,0,0,1-.85-2.51,13,13,0,0,1,.26-2.16,25,25,0,0,1,.59-2.54l2.69-9.24A14,14,0,0,0,57,50.6c.1-1,.15-1.72.15-2.13A6,6,0,0,0,55,43.72a8.9,8.9,0,0,0-6-1.82,15.56,15.56,0,0,0-4.58.75q-2.42.75-5.07,1.79l-.72,2.86c.52-.19,1.15-.39,1.88-.6a7.72,7.72,0,0,1,2.15-.32,4.36,4.36,0,0,1,2.88.7,3.3,3.3,0,0,1,.75,2.48,10.78,10.78,0,0,1-.25,2.17c-.16.79-.36,1.64-.61,2.52l-2.7,9.27a26.49,26.49,0,0,0-.52,2.62,16.23,16.23,0,0,0-.16,2.27,5.93,5.93,0,0,0,2.17,4.71A9.1,9.1,0,0,0,50.34,75a14,14,0,0,0,4.47-.65q1.93-.65,5.16-1.89l.72-2.86a12.58,12.58,0,0,1-1.79.59A8.65,8.65,0,0,1,56.68,70.5ZM59.5,26.7a6.85,6.85,0,0,0-9.06,0,5.42,5.42,0,0,0,0,8.24,6.9,6.9,0,0,0,9.06,0,5.45,5.45,0,0,0,0-8.24ZM50,0a50,50,0,1,0,50,50A50,50,0,0,0,50,0Zm0,95.45A45.45,45.45,0,1,1,95.45,50,45.45,45.45,0,0,1,50,95.45Z"/></g></svg>