<svg xmlns="http://www.w3.org/2000/svg" width="20" height="20" viewBox="0 0 20 20">
    <path fill="#FFF" fill-rule="evenodd" d="M14.545 10a4.546 4.546 0 0 1-4.09 4.523v-2.77A1.813 1.813 0 0 0 11.817 10a1.81 1.81 0 0 0-.064-.454l2.42-1.345c.238.552.371 1.16.371 1.799zm-5.454 0a.91.91 0 1 1 1.818 0 .91.91 0 0 1-1.818 0zm.454 4.523A4.546 4.546 0 0 1 5.826 8.2l2.42 1.345a1.802 1.802 0 0 0-.064.454c0 .846.58 1.551 1.363 1.754v2.769zM10 5.455c1.546 0 2.91.773 3.73 1.952L11.316 8.75a1.809 1.809 0 0 0-2.63 0L6.27 7.407A4.539 4.539 0 0 1 10 5.455zm0-.91a5.455 5.455 0 1 0 0 10.91 5.455 5.455 0 0 0 0-10.91zm9.09 6.578c-.003.001-.006.003-.01.003l-.93.233a.908.908 0 0 0-.657.646 7.714 7.714 0 0 1-.777 1.87.909.909 0 0 0 .006.925l.501.834-1.588 1.588a.064.064 0 0 1-.01-.005l-.83-.497a.904.904 0 0 0-.923-.008c-.587.339-1.214.599-1.864.773a.908.908 0 0 0-.648.658l-.234.938-.003.01H8.876l-.237-.949a.909.909 0 0 0-.647-.657 7.73 7.73 0 0 1-1.865-.773.908.908 0 0 0-.922.008l-.83.497-.01.005-1.588-1.588.5-.835a.909.909 0 0 0 .008-.923 7.69 7.69 0 0 1-.778-1.87.909.909 0 0 0-.657-.647l-.93-.233c-.004 0-.007-.002-.011-.003V8.877l.94-.235a.909.909 0 0 0 .658-.648 7.692 7.692 0 0 1 .778-1.87.909.909 0 0 0-.007-.923l-.495-.826-.005-.01 1.588-1.588.839.504a.908.908 0 0 0 .922.007c.587-.339 1.215-.599 1.865-.772a.91.91 0 0 0 .647-.658l.237-.949h2.247l.003.01.234.939a.91.91 0 0 0 .648.658c.65.173 1.277.433 1.864.772a.908.908 0 0 0 .922-.007l.84-.504 1.588 1.589-.005.01-.495.824a.909.909 0 0 0-.006.924c.34.588.601 1.217.777 1.87.085.32.337.567.657.648l.94.235v2.246zM19.334 8l-.962-.24a8.595 8.595 0 0 0-.87-2.092l.513-.853c.157-.305.26-.683 0-.943l-1.886-1.886a.561.561 0 0 0-.41-.163c-.183 0-.374.069-.533.163l-.858.515a8.626 8.626 0 0 0-2.085-.864L12 .667C11.896.34 11.701 0 11.333 0H8.666C8.298 0 8.083.34 8 .667l-.243.97a8.625 8.625 0 0 0-2.084.864l-.859-.515a1.079 1.079 0 0 0-.531-.163.56.56 0 0 0-.411.163L1.986 3.872c-.26.26-.157.638 0 .943l.512.853a8.595 8.595 0 0 0-.869 2.091L.667 8C.34 8.083 0 8.3 0 8.667v2.666c0 .369.34.563.667.667l.962.24c.198.742.493 1.443.87 2.092l-.513.854c-.172.29-.26.682 0 .942l1.886 1.886a.541.541 0 0 0 .396.159c.183 0 .376-.071.546-.159l.859-.515a8.624 8.624 0 0 0 2.084.864l.243.97c.083.327.298.667.666.667h2.667c.368 0 .563-.34.667-.667l.242-.97a8.625 8.625 0 0 0 2.085-.864l.858.515c.171.088.364.159.546.159a.541.541 0 0 0 .397-.159l1.886-1.886c.26-.26.172-.653 0-.942l-.512-.854c.376-.649.67-1.35.869-2.091l.962-.24c.327-.105.667-.3.667-.668V8.667c0-.368-.34-.584-.667-.667z"/>
</svg>
