<svg xmlns="http://www.w3.org/2000/svg" viewBox="0 0 100 100"><defs><style>.cls-1{fill:#1781e0;}</style></defs><title>CP-5-bleu</title><g id="Mode_Isolation" data-name="Mode Isolation"><circle cx="50" cy="50" r="49" fill="#EBEBEB"/><path class="cls-1" d="M50,2A48,48,0,1,1,2,50,48.05,48.05,0,0,1,50,2m0-2a50,50,0,1,0,50,50A50,50,0,0,0,50,0Z"/><path class="cls-1" d="M37.73,48.14a.84.84,0,0,1,0-.42q0-.3,0-.36l2-16.92a1.27,1.27,0,0,1,.6-1.08,1.3,1.3,0,0,1,1-.36H60.89a1.49,1.49,0,0,1,1,.42,1.41,1.41,0,0,1,.45,1.08,1.44,1.44,0,0,1-1.5,1.5H42.59l-1.5,12.48a14,14,0,0,1,7.14-1.92A14,14,0,0,1,62.39,56.78a13.59,13.59,0,0,1-4.2,10.11A13.9,13.9,0,0,1,48.11,71a13.65,13.65,0,0,1-10-4.14,1.33,1.33,0,0,1-.48-1,1.43,1.43,0,0,1,.48-1.08,1.54,1.54,0,0,1,1.08-.45,1.5,1.5,0,0,1,1.08.48,11.07,11.07,0,0,0,8,3.24,10.77,10.77,0,0,0,7.89-3.3A11.2,11.2,0,1,0,40.25,48.86a1.6,1.6,0,0,1-1.08.42,1.36,1.36,0,0,1-1.38-.9v-.06A.24.24,0,0,1,37.73,48.14Z"/></g></svg>
