<svg xmlns="http://www.w3.org/2000/svg" viewBox="0 0 100 100"><defs><style>.cls-1{fill:#20bf55;}</style></defs><title>CP-Valide</title><g id="General"><g id="Checkmark_1_2x.png" data-name="Checkmark 1@2x.png"><circle cx="50" cy="50" r="49" fill="#EBEBEB"/><path class="cls-1" d="M75,34.09a1.13,1.13,0,0,0-2-.78h0l-29.87,31L26.94,48.06a1.14,1.14,0,1,0-1.61,1.61l17,17a1.13,1.13,0,0,0,1.62,0h0L74.69,34.88h0A1.13,1.13,0,0,0,75,34.09Z"/></g><path class="cls-1" d="M50,2A48,48,0,1,1,2,50,48.05,48.05,0,0,1,50,2m0-2a50,50,0,1,0,50,50A50,50,0,0,0,50,0Z"/></g></svg>
