<svg xmlns="http://www.w3.org/2000/svg" viewBox="0 0 400 200"><defs><style>.cls-1{fill:#fff;}.cls-2{fill:#01528a;}.cls-3{fill:#05171d;}</style></defs><title>Meilleure SCPI</title><g id="Mode_Isolation" data-name="Mode Isolation"><polygon class="cls-1" points="380 20 20 20 0 100 0 200 400 200 400 100 380 20"/><path class="cls-2" d="M0,0V100H20V97.2A14.12,14.12,0,0,0,22.27,97a9.93,9.93,0,0,0,2.05-.35,2.63,2.63,0,0,0,1.57-1.37c.39-.65.11-1.5.11-2.54V66.16c0-.93.27-1.76-.15-2.5s-.53-1.37-1.28-1.89a7.41,7.41,0,0,0-2-.85A13.29,13.29,0,0,0,20,60.51V57.64l13.87-1,.13.61V64h1.26c.72-2,1.61-1.87,2.65-2.85a29.32,29.32,0,0,1,2.91-2.68,13.85,13.85,0,0,1,3.8-1.74,16.94,16.94,0,0,1,4.93-.7,11.66,11.66,0,0,1,7.17,2.24A12.79,12.79,0,0,1,61,63.68L63.81,61A23.32,23.32,0,0,1,67,58.55a14.57,14.57,0,0,1,3.91-1.83,17.14,17.14,0,0,1,5-.7,11.16,11.16,0,0,1,8.7,3.56c2.11,2.38,3.39,6,3.39,11V92.33a5.46,5.46,0,0,0,.3,2.5,2.88,2.88,0,0,0,1.56,1.5,11.61,11.61,0,0,0,2,.59c.65.13,2.18.22,2.18.28V100h17.23c-.54-.19-1.08-.39-1.59-.63a17.78,17.78,0,0,1-6.41-5,21.05,21.05,0,0,1-3.76-7.3,30.84,30.84,0,0,1-1.24-8.82,26,26,0,0,1,1.33-8.19,23.16,23.16,0,0,1,3.9-7.24,18.86,18.86,0,0,1,6.16-5A17.83,17.83,0,0,1,117.88,56,20.1,20.1,0,0,1,126,57.47a14.65,14.65,0,0,1,5.53,4,16.55,16.55,0,0,1,3.16,5.74A25.11,25.11,0,0,1,136,74.42V78H106.88a36,36,0,0,0,.8,7.31,16.48,16.48,0,0,0,2.54,5.7,12.1,12.1,0,0,0,4.43,4,13.68,13.68,0,0,0,6.52,1.46,12,12,0,0,0,6.67-1.81q2.8-1.81,5.41-6.53l3,1.87a21.94,21.94,0,0,1-7.22,8.17,17.44,17.44,0,0,1-3.71,1.85H140V97.2a12.64,12.64,0,0,0,2.2-.17,9.2,9.2,0,0,0,2-.35,2.72,2.72,0,0,0,1.61-1.37c.39-.65.21-1.5.21-2.54V66.33c0-.93.28-1.78-.14-2.54s-.52-1.41-1.27-1.93a6.46,6.46,0,0,0-2.17-.89c-1-.24-2.42-.4-2.42-.46V57.64l14.26-1-.26.61V92.24a5.09,5.09,0,0,0,1,2.52,4.61,4.61,0,0,0,2.26,1.48,20.12,20.12,0,0,0,2.28.63,6,6,0,0,0,2.45.33V100h2V97.2a18.36,18.36,0,0,0,2.6-.2,16.81,16.81,0,0,0,2.34-.33,3.73,3.73,0,0,0,2-1.37,4.88,4.88,0,0,0,1-2.55V43.08a7.21,7.21,0,0,0-1.15-2.94A6.88,6.88,0,0,0,168.61,38a10,10,0,0,0-3-1,13.9,13.9,0,0,0-3.61-.52V33.73l16.76-1,1.24.65V92.24a5.21,5.21,0,0,0,.19,2.5,2.77,2.77,0,0,0,1.45,1.5,11.74,11.74,0,0,0,2.07.65,5.37,5.37,0,0,0,2.29.3V100h4V97.2a15.31,15.31,0,0,1,1.82-.2,6.64,6.64,0,0,0,1.56-.33,3.38,3.38,0,0,0,1.89-1.37,4.76,4.76,0,0,0,.73-2.55V43.08a6.58,6.58,0,0,0-.68-2.94A5.71,5.71,0,0,0,193.54,38a7.26,7.26,0,0,0-2.64-1c-1.39-.29-2.9-.46-2.9-.52V33.73l15.76-1,.24.65V92.24a5,5,0,0,0,.48,2.5,3.4,3.4,0,0,0,1.75,1.5,9.08,9.08,0,0,0,1.78.65c.62.15,2,.25,2,.3V100h17.73c-.54-.19-1.08-.39-1.59-.63a17.8,17.8,0,0,1-6.41-5,21,21,0,0,1-3.76-7.3,30.84,30.84,0,0,1-1.24-8.82,26,26,0,0,1,1.33-8.19,23.17,23.17,0,0,1,3.89-7.24,18.84,18.84,0,0,1,6.15-5A17.76,17.76,0,0,1,234.35,56a19.94,19.94,0,0,1,8.06,1.48,14.42,14.42,0,0,1,5.46,4,16.29,16.29,0,0,1,3,5.74,25.13,25.13,0,0,1,1.1,7.17V78H223.38a36.09,36.09,0,0,0,.8,7.31,16.48,16.48,0,0,0,2.54,5.7,12.1,12.1,0,0,0,4.43,4,13.68,13.68,0,0,0,6.52,1.46,12,12,0,0,0,6.67-1.81q2.8-1.81,5.41-6.53l3,1.87a21.93,21.93,0,0,1-7.22,8.17,17.42,17.42,0,0,1-3.7,1.85h26.29a9.31,9.31,0,0,1-3.2-2.56q-3-3.71-3-10.79V66.16a5.37,5.37,0,0,0-.49-2.63,5.17,5.17,0,0,0-1.63-1.85,4.52,4.52,0,0,0-1.77-.76c-.79-.16-2.1-.27-2.1-.33V57.73l13.82-1,.18.61V87.07c0,3.1.78,5.43,2.17,7a6.64,6.64,0,0,0,5.08,2.35,11.49,11.49,0,0,0,4.25-.74,12.23,12.23,0,0,0,3.12-1.74,14.48,14.48,0,0,0,2-1.93c.59-.68,1.33-1.31,1.33-1.89V65.85a5.17,5.17,0,0,0-.57-2.54,5.6,5.6,0,0,0-1.65-1.89,4.86,4.86,0,0,0-2.33-.63c-1-.07-1.46-.14-3.46-.2V57.73l15.48-1,.52.61v34a5,5,0,0,0,.74,2.52,6,6,0,0,0,1.82,1.78,3.05,3.05,0,0,0,1.46.63c.72.1,2,.17,2,.19v2.87l-10.23.72H308V97.2a13.15,13.15,0,0,1,1.72-.17,5.13,5.13,0,0,0,1.51-.35,3.43,3.43,0,0,0,1.93-1.37,4.89,4.89,0,0,0,.84-2.54V66.33a6.64,6.64,0,0,0-1-2.65,6.18,6.18,0,0,0-2.1-2.08,7,7,0,0,0-2.13-.76,9.83,9.83,0,0,0-2.79-.33V57.64l14.82-1,1.18.61V63.6c1.74-3.6,3.68-4.11,5.8-5.28s4.22-2.16,6-2.16a5.91,5.91,0,0,1,4.46,1.78A6.61,6.61,0,0,1,340,62.73a7.21,7.21,0,0,1-1.09,3.93,3.67,3.67,0,0,1-3.34,1.72,5.05,5.05,0,0,1-3.71-1.26,3.81,3.81,0,0,1-1.27-2.78,9,9,0,0,1,.18-1.74c.1-.52.25-1,.33-1.56a9.31,9.31,0,0,0-4.68,1.65c-1.83,1.1-4.44,2.67-4.44,4.69v25a4.74,4.74,0,0,0,.4,2.48,3.1,3.1,0,0,0,1.66,1.43,12.08,12.08,0,0,0,2.85.65,17.73,17.73,0,0,0,3.08.3V100h24.4c-.54-.19-1.08-.39-1.59-.63a17.79,17.79,0,0,1-6.41-5,21.05,21.05,0,0,1-3.76-7.3,30.84,30.84,0,0,1-1.24-8.82,26,26,0,0,1,1.32-8.19,23.16,23.16,0,0,1,3.89-7.24,18.8,18.8,0,0,1,6.14-5A17.68,17.68,0,0,1,361,56a19.73,19.73,0,0,1,8,1.48,14.11,14.11,0,0,1,5.38,4,16,16,0,0,1,2.87,5.74,25.3,25.3,0,0,1,.76,7.17V78H350a36.09,36.09,0,0,0,.8,7.31,16.48,16.48,0,0,0,2.54,5.7,12.1,12.1,0,0,0,4.43,4,13.68,13.68,0,0,0,6.52,1.46A12,12,0,0,0,371,94.65q2.8-1.81,5.41-6.53l3,1.87a21.94,21.94,0,0,1-7.22,8.17,17.42,17.42,0,0,1-3.7,1.85H400V0ZM154.09,49.18a5.15,5.15,0,0,1-4,1.85,5.08,5.08,0,0,1-3.85-1.76,5.75,5.75,0,0,1-1.63-4,6,6,0,0,1,1.63-4.17,5.05,5.05,0,0,1,3.85-1.78A5.35,5.35,0,0,1,154.13,41a5.48,5.48,0,0,1,1.59,3.89A6.33,6.33,0,0,1,154.09,49.18Z"/><path class="cls-2" d="M75.68,97a5,5,0,0,0,1.46-.35,3.49,3.49,0,0,0,2-1.37,4.93,4.93,0,0,0,.9-2.54V70.64a10.61,10.61,0,0,0-2.35-7,7,7,0,0,0-5.44-2.46,11.81,11.81,0,0,0-4,.65,12.14,12.14,0,0,0-3.35,1.83A10,10,0,0,0,63,65.75a3.67,3.67,0,0,0-1,1.85V92.33a5.53,5.53,0,0,0,.25,2.5,2.78,2.78,0,0,0,1.51,1.5,15.42,15.42,0,0,0,1.92.59A5.9,5.9,0,0,0,68,97.2V100h6V97.2A12.79,12.79,0,0,1,75.68,97Z"/><path class="cls-2" d="M49.6,97A5,5,0,0,0,51,96.68a3.63,3.63,0,0,0,2-1.37,5,5,0,0,0,1-2.54V70.64a10.63,10.63,0,0,0-2.46-7A7.26,7.26,0,0,0,46,61.2a11.41,11.41,0,0,0-3.95.67,12.5,12.5,0,0,0-3.32,1.85,9.11,9.11,0,0,0-1.9,2.15,3.5,3.5,0,0,0-.83,1.8V92.24c0,1-.21,1.81.19,2.48s.6,1.17,1.41,1.52a10.09,10.09,0,0,0,2,.65,6.22,6.22,0,0,0,2.39.3V100h6V97.2A12.22,12.22,0,0,1,49.6,97Z"/><path class="cls-2" d="M287.91,94c-.7,0-1.48,1.6-2.35,2.42a16.84,16.84,0,0,1-3,2.34,20.67,20.67,0,0,1-2.43,1.24h8.05l-.2-.37V94Z"/><path class="cls-2" d="M125,63.82a8.77,8.77,0,0,0-2.74-3.23,7.45,7.45,0,0,0-4.48-1.21,9.41,9.41,0,0,0-7.59,3.88c-2,2.53-3.11,6.73-3.28,10.73H126.7a33.85,33.85,0,0,0-.41-5.37A17.21,17.21,0,0,0,125,63.82Z"/><path class="cls-2" d="M241.46,63.82a8.75,8.75,0,0,0-2.74-3.23,7.45,7.45,0,0,0-4.48-1.21,9.41,9.41,0,0,0-7.59,3.88c-2,2.53-3.11,6.73-3.28,10.73H243.2a33.85,33.85,0,0,0-.41-5.37A17.18,17.18,0,0,0,241.46,63.82Z"/><path class="cls-2" d="M368.13,63.82a8.75,8.75,0,0,0-2.74-3.23,7.45,7.45,0,0,0-4.48-1.21,9.41,9.41,0,0,0-7.59,3.88c-2,2.53-3.11,6.73-3.28,10.73h19.82a33.85,33.85,0,0,0-.41-5.37A17.17,17.17,0,0,0,368.13,63.82Z"/><path class="cls-3" d="M48.32,141a11,11,0,0,1,2.74,3.61,11.74,11.74,0,0,1,1,5,12.19,12.19,0,0,1-4.46,9.74Q43.1,163.14,36,163.14a17.39,17.39,0,0,1-6.89-1.35,19,19,0,0,1-4.5-2.48l-.87,2.83H20.5l-.43-14.91h3a16.74,16.74,0,0,0,1.48,4,19.09,19.09,0,0,0,2.74,4.1,15.1,15.1,0,0,0,4.06,3.23,10.83,10.83,0,0,0,5.33,1.31,9.72,9.72,0,0,0,6.43-1.9,6.72,6.72,0,0,0,2.26-5.44,6.53,6.53,0,0,0-.72-3.15A6.94,6.94,0,0,0,42.54,147a16.6,16.6,0,0,0-3.52-1.8q-2.09-.8-4.65-1.59a43.19,43.19,0,0,1-4.54-1.67,18.11,18.11,0,0,1-4.28-2.5,12.25,12.25,0,0,1-3.13-3.74,10.67,10.67,0,0,1-1.22-5.22,11.73,11.73,0,0,1,3.91-8.91q3.91-3.65,10.48-3.65a21.36,21.36,0,0,1,5.15.65A17.82,17.82,0,0,1,45,120.15l1-2.26h3.13l.65,13.78h-3a13.84,13.84,0,0,0-3.93-7.53,10.23,10.23,0,0,0-7.37-2.9A8.2,8.2,0,0,0,29.89,123a5.57,5.57,0,0,0-2,4.33,7.06,7.06,0,0,0,.67,3.26,6,6,0,0,0,2,2.22,16.87,16.87,0,0,0,3.28,1.63q2,.76,4.89,1.72a42,42,0,0,1,5.41,2.13A17.75,17.75,0,0,1,48.32,141Z"/><path class="cls-3" d="M77.52,163.14q-9.3,0-14.56-6.17T57.69,140.4a24.83,24.83,0,0,1,1.41-8.45,23.33,23.33,0,0,1,4.11-7.15,19.19,19.19,0,0,1,6.43-5,18.94,18.94,0,0,1,8.43-1.89q6.3,0,10.26,3a9.81,9.81,0,0,1,4,8.24,7.12,7.12,0,0,1-1,3.85,3.73,3.73,0,0,1-3.43,1.67,5.66,5.66,0,0,1-4-1.3,3.88,3.88,0,0,1-1.41-2.9,16.28,16.28,0,0,1,.52-4,22,22,0,0,0,.61-3,3.85,3.85,0,0,0-2.32-1.8,11.7,11.7,0,0,0-3.32-.45,9.18,9.18,0,0,0-4,.89,10.21,10.21,0,0,0-3.66,3.28,17.57,17.57,0,0,0-2.6,5.87,34.12,34.12,0,0,0-1,8.82q0,8.09,3.58,13.19a11,11,0,0,0,9.39,5.11,11.73,11.73,0,0,0,7.05-2.06A20.05,20.05,0,0,0,92,150.18L94.77,152a22.46,22.46,0,0,1-7.56,8.13A17.78,17.78,0,0,1,77.52,163.14Z"/><path class="cls-3" d="M136.26,124.23a22.33,22.33,0,0,1,4,7.06,27.66,27.66,0,0,1,1.41,9.19,24.56,24.56,0,0,1-1.7,9.28,22.73,22.73,0,0,1-4.48,7.15,21.09,21.09,0,0,1-6.48,4.61,18.22,18.22,0,0,1-7.56,1.61,19.48,19.48,0,0,1-6.35-.87,15,15,0,0,1-4-2h-.35v12.9a5.14,5.14,0,0,0,.61,2.62,3.54,3.54,0,0,0,1.87,1.53,19.19,19.19,0,0,0,3,.76,21.71,21.71,0,0,0,3.2.42v2.87h-24v-2.87c.9-.06,1.77-.13,2.61-.22a12.24,12.24,0,0,0,2.26-.43,3,3,0,0,0,1.83-1.52,5.88,5.88,0,0,0,.52-2.56V128.1a5.27,5.27,0,0,0-.65-2.52,5.58,5.58,0,0,0-1.7-2,6.15,6.15,0,0,0-2.17-.8,20.34,20.34,0,0,0-2.7-.37v-2.87l14.61-1,.61.52V124l.35.09a18.77,18.77,0,0,1,5.61-4.35,14.33,14.33,0,0,1,6.65-1.74,15.89,15.89,0,0,1,7.32,1.7A18,18,0,0,1,136.26,124.23Zm-7.09,30.82a19.61,19.61,0,0,0,2.56-6.26,35.31,35.31,0,0,0,.83-8,32.21,32.21,0,0,0-.7-6.56,18.73,18.73,0,0,0-2.17-5.82,12.16,12.16,0,0,0-3.87-4.09,10.24,10.24,0,0,0-5.74-1.56,10.13,10.13,0,0,0-5.48,1.41,16.57,16.57,0,0,0-3.91,3.37v25.34a9.44,9.44,0,0,0,1.28,2.43,11.44,11.44,0,0,0,2,2.17,12.49,12.49,0,0,0,2.91,1.76,9.67,9.67,0,0,0,3.83.67,9.39,9.39,0,0,0,4.69-1.28A10.89,10.89,0,0,0,129.18,155.05Z"/><path class="cls-3" d="M239.35,163.14q-9.3,0-14.56-6.17t-5.26-16.56a24.83,24.83,0,0,1,1.41-8.45,23.33,23.33,0,0,1,4.11-7.15,19.18,19.18,0,0,1,6.43-5,18.94,18.94,0,0,1,8.43-1.89q6.3,0,10.26,3a9.81,9.81,0,0,1,4,8.24,7.12,7.12,0,0,1-1,3.85,3.73,3.73,0,0,1-3.43,1.67,5.66,5.66,0,0,1-4-1.3,3.88,3.88,0,0,1-1.41-2.9,16.27,16.27,0,0,1,.52-4,22.06,22.06,0,0,0,.61-3,3.84,3.84,0,0,0-2.32-1.8,11.68,11.68,0,0,0-3.32-.45,9.18,9.18,0,0,0-4,.89,10.23,10.23,0,0,0-3.66,3.28,17.57,17.57,0,0,0-2.6,5.87,34.22,34.22,0,0,0-1,8.82q0,8.09,3.58,13.19a11,11,0,0,0,9.4,5.11,11.72,11.72,0,0,0,7.05-2.06,20,20,0,0,0,5.27-6.16l2.78,1.83a22.46,22.46,0,0,1-7.56,8.13A17.78,17.78,0,0,1,239.35,163.14Z"/><path class="cls-3" d="M303,140.14a28.33,28.33,0,0,1-1.43,8.89,21.19,21.19,0,0,1-4.09,7.41,19,19,0,0,1-7,5.17,22.35,22.35,0,0,1-8.88,1.7,20.07,20.07,0,0,1-7.79-1.54,19.63,19.63,0,0,1-6.57-4.5,21.48,21.48,0,0,1-4.5-7.11,25.16,25.16,0,0,1-1.68-9.41q0-10,5.85-16.43t15.34-6.39A19.77,19.77,0,0,1,297.19,124Q303,130.06,303,140.14Zm-9,.09a39,39,0,0,0-.65-6.89,21.78,21.78,0,0,0-2-6.15,12,12,0,0,0-3.66-4.33,9.21,9.21,0,0,0-5.53-1.63,9.77,9.77,0,0,0-5.73,1.65,12.2,12.2,0,0,0-3.85,4.52,19.94,19.94,0,0,0-2,6,39.67,39.67,0,0,0-.57,6.56,41.14,41.14,0,0,0,.68,7.72,22.28,22.28,0,0,0,2.15,6.32,12.32,12.32,0,0,0,3.72,4.37,9.37,9.37,0,0,0,5.55,1.59q5.44,0,8.62-5.26T294,140.23Z"/><path class="cls-3" d="M380,162H359.13v-2.87l2-.17a7.81,7.81,0,0,0,1.8-.35,3.13,3.13,0,0,0,1.8-1.37,4.89,4.89,0,0,0,.59-2.54V132.58q0-4.52-2.06-7a6.46,6.46,0,0,0-5.15-2.46,12.06,12.06,0,0,0-4,.65,12.61,12.61,0,0,0-3.43,1.83,11,11,0,0,0-2.11,2.06,19.42,19.42,0,0,0-1.28,1.85v24.73a5.29,5.29,0,0,0,.52,2.5,3.38,3.38,0,0,0,1.78,1.5,14.31,14.31,0,0,0,1.8.59,12.85,12.85,0,0,0,2.11.28V162H333.1v-2.87L335,159a7.66,7.66,0,0,0,1.72-.35,3.12,3.12,0,0,0,1.8-1.37,4.89,4.89,0,0,0,.59-2.54V132.58q0-4.52-2.07-7a6.48,6.48,0,0,0-5.16-2.46,11.77,11.77,0,0,0-4,.67,13.13,13.13,0,0,0-3.44,1.85,10.35,10.35,0,0,0-2.13,2.15l-1.31,1.8v24.56a4.69,4.69,0,0,0,.61,2.48,3.82,3.82,0,0,0,1.83,1.52,9,9,0,0,0,1.87.65,14.47,14.47,0,0,0,2.13.3V162H306.62v-2.87l2.06-.17a7.91,7.91,0,0,0,1.85-.35,3.13,3.13,0,0,0,1.8-1.37,4.89,4.89,0,0,0,.59-2.54V128.09a5,5,0,0,0-.63-2.5,5.76,5.76,0,0,0-1.76-1.89,7.41,7.41,0,0,0-2-.85,13.1,13.1,0,0,0-2.52-.41v-2.87l14.35-1,.61.61v6.13h.3q1.09-1.09,2.65-2.56a23.66,23.66,0,0,1,2.91-2.39,13.85,13.85,0,0,1,3.8-1.74,16.85,16.85,0,0,1,4.93-.7,11.65,11.65,0,0,1,7.17,2.24,12.76,12.76,0,0,1,4.3,5.41l2.76-2.67a22.62,22.62,0,0,1,3.15-2.46,14.37,14.37,0,0,1,3.88-1.83,16.68,16.68,0,0,1,5-.7,10.92,10.92,0,0,1,8.59,3.56q3.17,3.56,3.17,11v21.78a5.29,5.29,0,0,0,.52,2.5,3.38,3.38,0,0,0,1.78,1.5,11.76,11.76,0,0,0,2,.59,17.68,17.68,0,0,0,2.2.28Z"/><rect class="cls-2" x="185.95" y="130.93" width="12.62" height="12.62" transform="translate(-40.73 176.15) rotate(-45)"/><path class="cls-3" d="M168.91,162H148.21v-2.87l2.06-.17a7.91,7.91,0,0,0,1.85-.35,3.13,3.13,0,0,0,1.8-1.37,4.89,4.89,0,0,0,.59-2.54V128.27a5.2,5.2,0,0,0-.63-2.54,5.6,5.6,0,0,0-1.76-1.93,8,8,0,0,0-2.39-.89,17.71,17.71,0,0,0-2.87-.46v-2.87l15.13-1,.61.61v34.95a4.94,4.94,0,0,0,.58,2.52,3.46,3.46,0,0,0,1.84,1.48,14.78,14.78,0,0,0,1.85.63,11.49,11.49,0,0,0,2,.33Zm-5.43-55a6.33,6.33,0,0,1-1.63,4.33,5.15,5.15,0,0,1-4,1.85,5.08,5.08,0,0,1-3.85-1.76,5.75,5.75,0,0,1-1.63-4,6,6,0,0,1,1.63-4.17,5.05,5.05,0,0,1,3.85-1.78,5.35,5.35,0,0,1,4.06,1.67A5.48,5.48,0,0,1,163.47,107Z"/></g></svg>