<svg xmlns="http://www.w3.org/2000/svg" viewBox="0 0 100 100"><defs><style>.cls-1{fill:#01528a;}</style></defs><title>Merci-1-BleuMS</title><g id="Elements"><path class="cls-1" d="M63.44,18.85H36.56a5.44,5.44,0,0,0-5.42,5.42V75.73a5.44,5.44,0,0,0,5.42,5.42H63.44a5.44,5.44,0,0,0,5.42-5.42V24.27A5.44,5.44,0,0,0,63.44,18.85ZM45.56,21.08h8.87c.45,0,.81.25.81.55s-.37.55-.81.55H45.56c-.45,0-.81-.25-.81-.55S45.12,21.08,45.56,21.08ZM50,78.41a4.19,4.19,0,1,1,4.19-4.19A4.19,4.19,0,0,1,50,78.41ZM65.76,65.58A2.72,2.72,0,0,1,63,68.29H37a2.72,2.72,0,0,1-2.71-2.71V27A2.72,2.72,0,0,1,37,24.25H63A2.72,2.72,0,0,1,65.76,27Z"/><path class="cls-1" d="M50,100a50,50,0,1,1,50-50A50.06,50.06,0,0,1,50,100ZM50,3A47,47,0,1,0,97,50,47,47,0,0,0,50,3Z"/></g></svg>