<svg xmlns="http://www.w3.org/2000/svg" viewBox="0 0 100 100"><defs><style>.cls-1{fill:#1781e0;}</style></defs><title>Merci-2-BleuClair</title><g id="Elements"><path class="cls-1" d="M50,100a50,50,0,1,1,50-50A50.06,50.06,0,0,1,50,100ZM50,3A47,47,0,1,0,97,50,47,47,0,0,0,50,3Z"/><polygon class="cls-1" points="40.15 74.08 36.73 72.03 35.82 73.94 32.96 72.58 35.37 67.51 38.92 69.64 41.47 64.84 44.69 66.28 48.66 60.02 51.34 61.73 45.89 70.29 42.88 68.95 40.15 74.08"/><rect class="cls-1" x="54.66" y="69.1" width="2.68" height="4.15"/><rect class="cls-1" x="59.39" y="66.61" width="2.68" height="6.65"/><rect class="cls-1" x="64.12" y="65.13" width="2.68" height="8.12"/><path class="cls-1" d="M71.91,80.34H28.08V19.66H71.91ZM31.26,77.17H68.74V22.84H31.26Z"/><rect class="cls-1" x="35.46" y="27.31" width="29.07" height="3.17"/><rect class="cls-1" x="35.46" y="33.86" width="29.07" height="3.17"/><rect class="cls-1" x="35.46" y="40.41" width="29.07" height="3.17"/><rect class="cls-1" x="35.46" y="46.96" width="29.07" height="3.17"/><rect class="cls-1" x="35.46" y="53.32" width="29.07" height="3.17"/></g></svg>