<svg xmlns="http://www.w3.org/2000/svg" xmlns:xlink="http://www.w3.org/1999/xlink" viewBox="0 0 100 100"><defs><style>.cls-1{fill:none;}.cls-2{fill:#1781e0;}.cls-3{clip-path:url(#clip-path);}</style><clipPath id="clip-path"><circle class="cls-1" cx="50" cy="50" r="48.48"/></clipPath></defs><title>Merci-6-BleuClair</title><g id="Elements"><path class="cls-2" d="M50,100a50,50,0,1,1,50-50A50.06,50.06,0,0,1,50,100ZM50,3A47,47,0,1,0,97,50,47,47,0,0,0,50,3Z"/><g class="cls-3"><path class="cls-2" d="M88.9,101.06H11.71a1.77,1.77,0,0,1-1.23-.49A1.58,1.58,0,0,1,10,99.4a17.1,17.1,0,0,1,5.13-11c3.94-3.83,12.53-6.81,17.14-8.4,1-.34,1.78-.61,2.25-.8a6.93,6.93,0,0,0,4.11-4,28,28,0,0,0,.32-6.33,34,34,0,0,1-3.09-4.74,21.33,21.33,0,0,1-1.51-4.59,6.8,6.8,0,0,1-3.76-4.8c-1-3.52.06-5.68,1.31-6.82a34.76,34.76,0,0,1-1.27-8.18c-.42-7.2,1.51-11.94,6.43-15.86,5.19-4.13,13-3.67,13.37-3.66a19.26,19.26,0,0,1,9.67,3.35,12.91,12.91,0,0,1,4.85,1.83c5.26,3.92,5.42,8,5.05,14.34A34.86,34.86,0,0,1,68.72,48C70,49.09,71,51.25,70,54.77a6.8,6.8,0,0,1-3.76,4.8,21.3,21.3,0,0,1-1.51,4.59,33.92,33.92,0,0,1-3.09,4.74A27.89,27.89,0,0,0,62,75.23a6.92,6.92,0,0,0,4.11,4c.47.19,1.25.46,2.24.8,4.61,1.6,13.2,4.57,17.14,8.4a17.1,17.1,0,0,1,5.13,11,1.58,1.58,0,0,1-.49,1.17A1.77,1.77,0,0,1,88.9,101.06ZM13.67,97.81H86.94A14.19,14.19,0,0,0,83,90.67h0c-3.4-3.3-11.81-6.22-15.86-7.62-1.06-.37-1.91-.66-2.41-.87a10.13,10.13,0,0,1-6-6c-.67-2.07-.49-6.95-.45-7.91a1.58,1.58,0,0,1,.33-.89,34,34,0,0,0,3-4.55,18.87,18.87,0,0,0,1.44-4.77,1.69,1.69,0,0,1,1.69-1.42s1.25-.17,2-2.7c.86-3.1-.5-3.77-.66-3.84a1.76,1.76,0,0,1-1-.94,1.58,1.58,0,0,1,0-1.28s1.1-2.37,1.45-8.29c.37-6.45-.1-8.89-3.75-11.61a10.51,10.51,0,0,0-3.72-1.25,1.77,1.77,0,0,1-.84-.36,15.66,15.66,0,0,0-8-2.88c-.11,0-6.86-.37-11,2.9s-5.57,7-5.21,13.2c.34,5.92,1.44,8.29,1.46,8.31a1.56,1.56,0,0,1,0,1.32,1.69,1.69,0,0,1-1,.9c-.1,0-1.46.72-.6,3.82.7,2.53,2,2.7,2,2.71a1.61,1.61,0,0,1,1.61,1.41A18.89,18.89,0,0,0,39,62.83a33.89,33.89,0,0,0,3,4.55,1.58,1.58,0,0,1,.33.89c0,1,.23,5.84-.45,7.91a10.14,10.14,0,0,1-6,6c-.51.21-1.35.5-2.42.87-4,1.4-12.46,4.32-15.86,7.62A14.1,14.1,0,0,0,13.67,97.81Z"/></g></g></svg>