<?xml version="1.0" encoding="utf-8"?>
<!-- Generator: Adobe Illustrator 17.0.0, SVG Export Plug-In . SVG Version: 6.00 Build 0)  -->
<!DOCTYPE svg PUBLIC "-//W3C//DTD SVG 1.1//EN" "http://www.w3.org/Graphics/SVG/1.1/DTD/svg11.dtd">
<svg version="1.1" id="Layer_1" xmlns="http://www.w3.org/2000/svg" xmlns:xlink="http://www.w3.org/1999/xlink" x="0px" y="0px"
	 width="1000px" height="1000px" viewBox="0 0 1000 1000" enable-background="new 0 0 1000 1000" xml:space="preserve">
<path d="M413.2,97.9l4.4,299.1c0,14.7-11.7,27.9-27.9,27.9l-299.1-4.4c-23.5,0-35.2-29.3-19.1-46.9l83.6-83.7L17.3,152.2l129-129
	l137.8,137.7l83.6-83.6C383.8,62.7,413.2,74.4,413.2,97.9 M715.2,163.9l-83.6-83.6c-17.6-17.6-45.4-5.9-47,19.1l-2.8,299.1
	c0,14.6,11.7,27.9,27.8,27.9l299.2-4.4c23.5,0,35.2-29.4,19-47l-83.6-83.6L982,153.6l-129-129L715.2,163.9z M927.7,628.7
	c17.6-17.6,5.9-45.4-19-46.9l-299.2-4.5c-14.6,0-27.8,11.8-27.8,27.9l4.4,299.2c0,23.4,29.3,35.2,46.9,19l83.6-83.6l137.8,137.8
	l129-129L845.7,710.8L927.7,628.7z M389.7,575.9l-299.1,4.4c-23.5,0-35.2,29.4-19.1,47l83.6,83.6L17.3,848.6l129,129l137.8-137.8
	l83.6,83.6c17.6,17.6,45.4,5.9,46.9-19l2.9-300.6C417.5,587.6,404.3,575.9,389.7,575.9" fill="#01528a"/>
</svg>
