<svg xmlns="http://www.w3.org/2000/svg" viewBox="0 0 100 100"><defs><style>.cls-1{fill:#fff;}</style></defs><title>en-cours-realisation-blanc</title><g id="Web"><g id="Refresh_2" data-name="Refresh 2"><path class="cls-1" d="M50,4.55A45.37,45.37,0,0,1,86.35,22.73H68.18a2.27,2.27,0,0,0,0,4.55H90.91A2.27,2.27,0,0,0,93.18,25V2.27a2.27,2.27,0,0,0-4.55,0V18.34A50,50,0,0,0,0,50a2.27,2.27,0,0,0,4.55,0A45.46,45.46,0,0,1,50,4.55ZM97.73,47.73A2.27,2.27,0,0,0,95.45,50a45.45,45.45,0,0,1-81.8,27.27H31.82a2.27,2.27,0,0,0,0-4.55H9.09A2.27,2.27,0,0,0,6.82,75V97.73a2.27,2.27,0,1,0,4.55,0V81.66A50,50,0,0,0,100,50,2.27,2.27,0,0,0,97.73,47.73Z"/></g></g></svg>