<svg xmlns="http://www.w3.org/2000/svg" viewBox="0 0 100 100"><defs><style>.cls-1,.cls-2{fill:#ff9f1c;}.cls-1{fill-rule:evenodd;}</style></defs><title>vente-jaune</title><g id="Icons"><path class="cls-1" d="M48.55.6h0a2.06,2.06,0,0,1,2.9,0h0l8.2,8.2a2.05,2.05,0,1,1-2.9,2.9h0L52.05,7V26.67a2.05,2.05,0,1,1-4.1,0h0V7l-4.7,4.7h0a2.05,2.05,0,0,1-2.9-2.9Z"/><g id="Wallet_2" data-name="Wallet 2"><path class="cls-2" d="M35.64,50.77h-4.1a2.05,2.05,0,0,0,0,4.1h4.1a2.05,2.05,0,0,0,0-4.1Zm0,36.92h-4.1a2.05,2.05,0,0,0,0,4.1h4.1a2.05,2.05,0,0,0,0-4.1ZM23.33,50.77h-4.1a2.05,2.05,0,0,0,0,4.1h4.1a2.05,2.05,0,1,0,0-4.1Zm0,36.92h-4.1a2.05,2.05,0,0,0,0,4.1h4.1a2.05,2.05,0,1,0,0-4.1ZM68.46,54.87h4.1a2.05,2.05,0,0,0,0-4.1h-4.1a2.05,2.05,0,1,0,0,4.1ZM47.95,87.69h-4.1a2.05,2.05,0,1,0,0,4.1h4.1a2.05,2.05,0,0,0,0-4.1Zm24.61,0h-4.1a2.05,2.05,0,1,0,0,4.1h4.1a2.05,2.05,0,0,0,0-4.1Zm4.1-18.46a2.05,2.05,0,1,0,2.05,2.05A2.05,2.05,0,0,0,76.67,69.23ZM86.92,59V42.57a8.21,8.21,0,0,0-8.2-8.2H13.08a8.21,8.21,0,0,0-8.2,8.2V91.8a8.21,8.21,0,0,0,8.2,8.2H78.72a8.21,8.21,0,0,0,8.2-8.2v-8.2a8.21,8.21,0,0,0,8.2-8.2v-8.2A8.21,8.21,0,0,0,86.92,59ZM9,42.57a4.1,4.1,0,0,1,4.1-4.1H78.72a4.1,4.1,0,0,1,4.1,4.1V43.7a8.11,8.11,0,0,0-4.1-1.14H13.08A8.11,8.11,0,0,0,9,43.7ZM82.82,91.8a4.1,4.1,0,0,1-4.1,4.1H13.08A4.1,4.1,0,0,1,9,91.8v-41a4.1,4.1,0,0,1,4.1-4.1H78.72a4.1,4.1,0,0,1,4.1,4.1V59h-8.2a8.21,8.21,0,0,0-8.2,8.2v8.2a8.21,8.21,0,0,0,8.2,8.2h8.2ZM91,75.39a4.1,4.1,0,0,1-4.1,4.1H74.61a4.1,4.1,0,0,1-4.1-4.1v-8.2a4.1,4.1,0,0,1,4.1-4.1H86.92a4.1,4.1,0,0,1,4.1,4.1ZM60.26,50.77h-4.1a2.05,2.05,0,0,0,0,4.1h4.1a2.05,2.05,0,1,0,0-4.1Zm-12.31,0h-4.1a2.05,2.05,0,1,0,0,4.1h4.1a2.05,2.05,0,0,0,0-4.1ZM60.26,87.69h-4.1a2.05,2.05,0,0,0,0,4.1h4.1a2.05,2.05,0,1,0,0-4.1Z"/></g></g></svg>