<svg xmlns="http://www.w3.org/2000/svg" viewBox="0 0 100 100"><defs><style>.cls-1{fill:#fff;}</style></defs><title>Cadenas-open-Blanc</title><g id="Icons"><g id="Unlock_2x.png" data-name="Unlock@2x.png"><path class="cls-1" d="M50,59.09a9.06,9.06,0,0,0-6.74,15.14,6.82,6.82,0,1,0,13.48,0A9.05,9.05,0,0,0,50,59.09Zm2.27,13V75a2.27,2.27,0,1,1-4.55,0V72.1a4.55,4.55,0,1,1,4.55,0Zm25-31.19V27.27a27.27,27.27,0,1,0-54.55,0,2.27,2.27,0,1,0,4.55,0,22.73,22.73,0,0,1,45.45,0V40.91h-50A9.09,9.09,0,0,0,13.64,50V90.91A9.09,9.09,0,0,0,22.73,100H77.27a9.09,9.09,0,0,0,9.09-9.09V50A9.09,9.09,0,0,0,77.27,40.91Zm4.55,50a4.55,4.55,0,0,1-4.55,4.55H22.73a4.55,4.55,0,0,1-4.55-4.55V50a4.55,4.55,0,0,1,4.55-4.55H77.27A4.55,4.55,0,0,1,81.82,50Z"/></g></g></svg>