<svg xmlns="http://www.w3.org/2000/svg" width="329" height="121" viewBox="0 0 329 121">
    <defs>
        <filter id="a" width="104.4%" height="112.4%" x="-2.2%" y="-4.4%" filterUnits="objectBoundingBox">
            <feOffset dy="2" in="SourceAlpha" result="shadowOffsetOuter1"/>
            <feGaussianBlur in="shadowOffsetOuter1" result="shadowBlurOuter1" stdDeviation="2"/>
            <feColorMatrix in="shadowBlurOuter1" result="shadowMatrixOuter1" values="0 0 0 0 0 0 0 0 0 0 0 0 0 0 0 0 0 0 0.5 0"/>
            <feMerge>
                <feMergeNode in="shadowMatrixOuter1"/>
                <feMergeNode in="SourceGraphic"/>
            </feMerge>
        </filter>
    </defs>
    <g fill="none" fill-rule="evenodd" filter="url(#a)" transform="translate(4 2)">
        <path fill="#FFF" d="M56.239 112.15c-2.227 0-4.468-.132-6.714-.398-14.853-1.764-28.131-9.204-37.388-20.952-19.108-24.251-14.92-59.524 9.337-78.628C40.35-2.695 66.556-3.881 86.683 9.217a5.098 5.098 0 0 1-5.561 8.543c-16.463-10.716-37.898-9.743-53.34 2.419-19.84 15.626-23.266 44.477-7.636 64.313 7.57 9.609 18.432 15.696 30.58 17.138 12.15 1.44 24.135-1.932 33.747-9.502 13.657-10.756 20-28.031 16.556-45.082a5.098 5.098 0 0 1 9.993-2.018c4.21 20.842-3.545 41.957-20.241 55.107-9.974 7.855-22.038 12.015-34.542 12.015"/>
        <path fill="#FF9F1C" d="M53.71 78.23c-1.26 0-2.47-.618-3.365-1.505L26.897 53.422c-1.874-1.857-1.887-4.912-.029-6.786 1.858-1.875 4.884-1.903 6.758-.044l19.993 19.81L98.753 19.22a4.777 4.777 0 1 1 6.907 6.603l-48.498 50.81c-.886.928-2.108 1.596-3.39 1.596h-.063z"/>
        <g fill="#FFF">
            <path d="M155.619 25.228l-.031-18.32c-.002-.516-.698-.7-.932-.24l-8.14 15.998c-.083.166-.253.213-.438.213h-1.127c-.186 0-.356-.057-.44-.223l-8.134-16.014c-.233-.463-.966-.273-.966.246v18.266c0 .272-.15.638-.422.638h-1.76c-.271 0-.732-.366-.732-.638V.874c0-.272.46-.724.733-.724h2.779c.185 0 .355.22.439.386l8.663 17.112c.182.36.696.388.878.029L154.617.52c.084-.165.254-.371.439-.371h2.743c.272 0 .34.452.34.724v24.28c0 .272-.068.638-.34.638h-1.688c-.271 0-.491-.293-.492-.564M173.731 13.014c0 5.558 4.692 9.997 10.323 9.997 5.63 0 10.25-4.44 10.25-9.997 0-5.558-4.62-9.961-10.25-9.961s-10.323 4.403-10.323 9.96m23.532 0c0 7.11-5.847 12.777-13.209 12.777-7.399 0-13.247-5.666-13.247-12.776 0-7.147 5.848-12.704 13.247-12.704 7.362 0 13.21 5.594 13.21 12.704M227.644 25.521L213.663 6.585c-.284-.38-.743-.216-.743.258v18.31c0 .272-.507.64-.78.64h-1.902c-.272 0-.232-.368-.232-.64V.873c0-.272-.04-.724.232-.724h2.257c.155 0 .3.19.394.314l14.21 18.991c.283.38.973.237.973-.236V.873c0-.272.048-.724.32-.724h1.867c.27 0 .727.452.727.724v24.28c0 .272-.456.64-.727.64h-2.221c-.155 0-.301-.148-.394-.272"/>
        </g>
        <g fill="#FFF">
            <path d="M154.863 47.46l-1.11 1.411a.492.492 0 0 1-.724.05c-1.916-1.759-4.483-2.8-7.082-2.8-5.702 0-10.286 4.402-10.286 9.96 0 5.522 4.584 9.961 10.286 9.961 2.612 0 5.161-1.02 7.107-2.702a.49.49 0 0 1 .691.038l1.114 1.25a.497.497 0 0 1-.036.7c-2.452 2.16-5.687 3.566-9.02 3.566-7.291 0-13.065-5.666-13.065-12.813 0-7.073 5.847-12.668 13.173-12.668 3.303 0 6.508 1.28 8.896 3.37a.498.498 0 0 1 .056.677M167.525 56.118c0 5.558 4.692 9.997 10.321 9.997 5.631 0 10.251-4.44 10.251-9.997 0-5.558-4.62-9.961-10.251-9.961-5.629 0-10.321 4.403-10.321 9.96m23.531 0c0 7.11-5.847 12.777-13.21 12.777-7.397 0-13.245-5.666-13.245-12.776 0-7.147 5.848-12.704 13.245-12.704 7.363 0 13.21 5.594 13.21 12.704M226.42 68.338l-.032-18.322c-.002-.517-.698-.703-.932-.241l-8.139 16.002c-.084.165-.254.216-.439.216h-1.127c-.186 0-.356-.061-.439-.227l-7.986-16.018c-.234-.462-.817-.275-.817.244v18.267c0 .27-.449.649-.72.649h-1.758c-.272 0-.436-.379-.436-.65v-24.28c0-.273.164-.713.436-.713h2.778c.185 0 .355.214.44.38l8.662 17.11c.182.36.696.386.878.026l8.628-17.15c.084-.165.254-.365.44-.365h2.742c.272 0 .638.44.638.712v24.28c0 .272-.366.65-.638.65h-1.688c-.27 0-.49-.3-.492-.57M246.72 57.502c0 .272.379.333.65.333h6.005c4.547 0 7.182-1.984 7.182-5.918 0-3.826-2.635-5.738-7.182-5.738h-6.004c-.272 0-.65.306-.65.577v10.746zm6.763-14.237c6.244 0 9.853 3.201 9.853 8.58 0 5.594-3.61 8.904-9.853 8.904h-6.112c-.272 0-.65.245-.65.516v6.993c0 .271-.063.65-.335.65h-1.902c-.272 0-.677-.379-.677-.65v-24.28c0-.272.405-.713.677-.713h8.999zM282.853 46.757v21.5c0 .273-.035.65-.307.65h-1.903c-.272 0-.704-.377-.704-.65v-21.5c0-.272-.01-.577-.28-.577h-7.245c-.272 0-.634-.135-.634-.407v-1.796c0-.271.362-.711.634-.711h18.397c.272 0 .2.44.2.71v1.797c0 .272.072.407-.2.407h-7.281c-.272 0-.677.305-.677.577M305.58 46.757v7.316c0 .272.23.265.503.265h11.757c.27 0 .562.448.562.72v1.795c0 .27-.291.399-.562.399h-11.757c-.272 0-.502.313-.502.585v7.678c0 .272.23.479.502.479h13.74c.273 0 .328.233.328.505v1.759c0 .272-.055.649-.327.649h-16.628c-.272 0-.53-.377-.53-.65v-24.28c0-.271.258-.711.53-.711h16.158c.272 0 .214.44.214.71v1.797c0 .272.058.407-.214.407h-13.271c-.272 0-.502.305-.502.577"/>
        </g>
        <g fill="#FF9F1C">
            <path d="M153.328 89.52l-1.792 3.85a.489.489 0 0 1-.684.217c-2.569-1.435-5.503-2.334-7.409-2.334-1.912 0-3.212.686-3.212 2.058 0 4.656 13.462 2.057 13.427 11.152 0 4.944-4.296 7.615-9.89 7.615-4.006 0-8.012-1.48-10.85-3.757a.496.496 0 0 1-.13-.603l1.824-3.735a.493.493 0 0 1 .758-.16c2.558 2.076 5.96 3.383 8.471 3.383 2.345 0 3.753-.867 3.753-2.42 0-4.763-13.462-1.983-13.462-10.934 0-4.584 3.934-7.471 9.781-7.471 3.368 0 6.737.982 9.233 2.51.212.13.287.403.182.629M186.208 90.99l-2.675 3.256a.493.493 0 0 1-.74.021c-1.703-1.75-4.007-2.87-6.186-2.87-4.331 0-7.687 3.356-7.687 7.76 0 4.403 3.356 7.795 7.687 7.795 2.126 0 4.44-1.01 6.208-2.616a.492.492 0 0 1 .697.023l2.695 2.927a.495.495 0 0 1-.014.69c-2.653 2.55-6.347 4.174-9.874 4.174-7.543 0-13.246-5.595-13.246-12.92 0-7.292 5.81-12.778 13.462-12.778 3.49 0 7.149 1.49 9.639 3.868a.495.495 0 0 1 .034.67M203.013 99.423c0 .272.048.225.32.225h4.235c3.176 0 4.98-1.246 4.98-4.133 0-2.815-1.804-4.025-4.98-4.025h-4.235c-.272 0-.32.092-.32.363v7.57zm4.844-12.596c6.425 0 10.106 3.186 10.106 8.78 0 5.883-3.681 9.286-10.106 9.286h-4.524c-.272 0-.32.006-.32.278v6.235c0 .272-.392.48-.664.48h-4.72c-.27 0-.444-.208-.444-.48V87.125c0-.272.174-.298.445-.298h10.227zM234.482 111.394c0 .272-.22.492-.492.492h-4.844a.492.492 0 0 1-.492-.492V87.32c0-.272.22-.492.492-.492h4.844c.272 0 .492.22.492.492v24.075z"/>
        </g>
    </g>
</svg>
