<svg xmlns="http://www.w3.org/2000/svg" viewBox="0 0 100 100"><defs><style>.cls-1{fill:#969696;}</style></defs><title>CP-1-gris</title><g id="Mode_Isolation" data-name="Mode Isolation"><circle cx="50" cy="50" r="49" fill="#EBEBEB"/><path class="cls-1" d="M50,2A48,48,0,1,1,2,50,48.05,48.05,0,0,1,50,2m0-2a50,50,0,1,0,50,50A50,50,0,0,0,50,0Z"/><path class="cls-1" d="M49.72,69.47V33.17l-5.94,3.48a1.71,1.71,0,0,1-1,.24,1.2,1.2,0,0,1-1-.72,1.27,1.27,0,0,1,.54-2l8.1-4.92a1.38,1.38,0,0,1,1.14-.12,1.35,1.35,0,0,1,1,1.74V69.47a1.44,1.44,0,1,1-2.88,0Z"/></g></svg>
