<svg xmlns="http://www.w3.org/2000/svg" viewBox="0 0 100 100">
	<defs>
		<style>
			.cls-1 {
				fill:#1781e0;
			}
		</style>
	</defs>
	<title>CP-2-bleu</title>
	<g id="Mode_Isolation" data-name="Mode Isolation">
		<circle cx="50" cy="50" r="49" fill="#EBEBEB"/>
		<path class="cls-1" d="M50,2A48,48,0,1,1,2,50,48.05,48.05,0,0,1,50,2m0-2a50,50,0,1,0,50,50A50,50,0,0,0,50,0Z"/>
		<path class="cls-1" d="M37.15,70.58a1.42,1.42,0,0,1,.06-2.16l19.62-17.7A10.16,10.16,0,0,0,60.43,43a11.21,11.21,0,0,0-3-7.74,9.68,9.68,0,0,0-7.5-3.33,11.1,11.1,0,0,0-7.62,2.76l-2,1.86a1.6,1.6,0,0,1-1.08.42,1.22,1.22,0,0,1-1-.48,1.66,1.66,0,0,1-.39-1.08,1.14,1.14,0,0,1,.48-1l2-1.92A14.2,14.2,0,0,1,50.05,29a12.4,12.4,0,0,1,9.66,4.5A13.42,13.42,0,0,1,63.31,43a12.93,12.93,0,0,1-4.5,9.84L42,68.06H61.87a1.35,1.35,0,0,1,1,.45,1.5,1.5,0,0,1,.42,1.05A1.43,1.43,0,0,1,61.87,71H38.23A1.34,1.34,0,0,1,37.15,70.58Z"/>
	</g>
</svg>
