<svg xmlns="http://www.w3.org/2000/svg" viewBox="0 0 100 100"><defs><style>.cls-1{fill:#1781e0;}</style></defs><title>CP-3-bleu</title><g id="Mode_Isolation" data-name="Mode Isolation"><circle cx="50" cy="50" r="49" fill="#EBEBEB"/><path class="cls-1" d="M50,2A48,48,0,1,1,2,50,48.05,48.05,0,0,1,50,2m0-2a50,50,0,1,0,50,50A50,50,0,0,0,50,0Z"/><path class="cls-1" d="M62.18,31.16a1.07,1.07,0,0,1-.3.48L51,42.8A14.09,14.09,0,0,1,62.36,56.72,14.29,14.29,0,0,1,48.08,71a13.55,13.55,0,0,1-10-4.2,1.52,1.52,0,0,1,0-2.1,1.39,1.39,0,0,1,1-.42,1.6,1.6,0,0,1,1.08.42,11.11,11.11,0,0,0,8,3.24,11.24,11.24,0,0,0,8-19.17,10.82,10.82,0,0,0-8-3.27,1.48,1.48,0,0,1-1.2-.6h-.06a1.45,1.45,0,0,1,0-2.16L57.32,32H41.24a1.49,1.49,0,0,1-1-.42,1.52,1.52,0,0,1,0-2.16,1.49,1.49,0,0,1,1-.42H60.86a1.47,1.47,0,0,1,1.08.42,1.47,1.47,0,0,1,.24,1.74Z"/></g></svg>
