<svg xmlns="http://www.w3.org/2000/svg" viewBox="0 0 100 100"><defs><style>.cls-1{fill:#969696;}</style></defs><title>CP-4-gris</title><g id="Mode_Isolation" data-name="Mode Isolation"><circle cx="50" cy="50" r="49" fill="#EBEBEB"/><path class="cls-1" d="M50,2A48,48,0,1,1,2,50,48.05,48.05,0,0,1,50,2m0-2a50,50,0,1,0,50,50A50,50,0,0,0,50,0Z"/><path class="cls-1" d="M53.69,26.59a1.72,1.72,0,0,1,.54,1v29h2.82a1.5,1.5,0,0,1,1.05.42,1.38,1.38,0,0,1,0,2,1.49,1.49,0,0,1-1.05.42H54.23v7.2a1.34,1.34,0,0,1-.45,1,1.49,1.49,0,0,1-1.05.42,1.43,1.43,0,0,1-1.44-1.44v-7.2H28.37a1.48,1.48,0,0,1-1-.33,1.36,1.36,0,0,1-.45-1,1.24,1.24,0,0,1,.36-1L51.6,26.83l.06-.06A1.3,1.3,0,0,1,53.69,26.59ZM31.43,56.53H51.29V31.93Z"/></g></svg>
