<svg id="Calque_1" data-name="Calque 1" xmlns="http://www.w3.org/2000/svg" viewBox="0 0 100 100"><defs><style>.cls-1{fill:#1781e0;}.cls-2{fill:#01528a;fill-rule:evenodd;}</style></defs><title>ProjetReflexionPlan de travail 1</title><path class="cls-1" d="M64.33,56.25,82.17,74.08a3.12,3.12,0,0,0,5.33-2.21V56.25h3.15A9.36,9.36,0,0,0,100,46.89V9.36A9.35,9.35,0,0,0,90.65,0H34.35A9.36,9.36,0,0,0,25,9.36V46.89a9.35,9.35,0,0,0,9.35,9.36ZM34.35,50a3.1,3.1,0,0,1-3.1-3.11V9.36a3.11,3.11,0,0,1,3.1-3.11h56.3a3.1,3.1,0,0,1,3.1,3.11V46.89A3.11,3.11,0,0,1,90.65,50H84.38a3.13,3.13,0,0,0-3.12,3.13V64.33L67.83,50.92A3.12,3.12,0,0,0,65.63,50Z"/><path class="cls-2" d="M64.47,81.24H35L17.51,99.08a2.91,2.91,0,0,1-5-2.21l-.12-15.62H9.18A9.27,9.27,0,0,1,0,71.89V34.36A9.26,9.26,0,0,1,9.18,25h9.23v6.25H9.18a3.07,3.07,0,0,0-3,3.11V71.89a3.08,3.08,0,0,0,3,3.11h6.16a3.4,3.4,0,0,1,3.41,3.13V89L31.58,75.91A3,3,0,0,1,33.75,75H64.47A3.05,3.05,0,0,0,67.4,72.7l4.47,4.71A9.11,9.11,0,0,1,64.47,81.24Z"/></svg>