<svg xmlns="http://www.w3.org/2000/svg" viewBox="0 0 100 100"><defs><style>.cls-1{fill:#ff9f1c;}</style></defs><title>EnCoursCreation-Orange</title><g id="General"><g id="Write_2x.png" data-name="Write@2x.png"><path class="cls-1" d="M97.73,34.09a2.27,2.27,0,0,0-2.27,2.27v50a9.09,9.09,0,0,1-9.09,9.09H13.64a9.09,9.09,0,0,1-9.09-9.09V13.64a9.09,9.09,0,0,1,9.09-9.09h50a2.27,2.27,0,1,0,0-4.55h-50A13.64,13.64,0,0,0,0,13.64V86.36A13.64,13.64,0,0,0,13.64,100H86.36A13.63,13.63,0,0,0,100,86.36v-50A2.27,2.27,0,0,0,97.73,34.09ZM25,75l19.4-3.33L96.67,19.4A11.36,11.36,0,1,0,80.6,3.33L28.33,55.6ZM83.82,6.54a6.82,6.82,0,0,1,9.64,9.64l-2.94,2.94L80.88,9.48ZM77.66,12.7l9.64,9.64L45.45,64.19V54.55H35.81ZM32.44,59.09h8.47v8.47L30.68,69.32Z"/></g></g></svg>