<svg id="Calque_1" data-name="Calque 1" xmlns="http://www.w3.org/2000/svg" viewBox="0 0 100 100"><defs><style>.cls-1,.cls-2{fill:#20bf55;}.cls-1{fill-rule:evenodd;}</style></defs><title>Termine-Vert</title><path class="cls-1" d="M46.72,55.24l.56-.56,41.3-41.3A3.12,3.12,0,1,1,93,17.79L48.93,61.87a3.11,3.11,0,0,1-4.42,0l0,0,0,0-11-11a3.12,3.12,0,0,1,4.42-4.42Z"/><path class="cls-2" d="M42.18.62a50,50,0,1,0,57.2,41.56,3.12,3.12,0,0,0-6.17,1A43.74,43.74,0,1,1,68.61,10.41a3.13,3.13,0,0,0,2.66-5.66A49.77,49.77,0,0,0,42.18.62Z"/></svg>