<svg xmlns="http://www.w3.org/2000/svg" width="100" height="100" viewBox="0 0 100 100">
    <path fill="#FFF" fill-rule="evenodd" d="M79.545 63.5H75c-1.255 0-2.273 1.008-2.273 2.25A2.26 2.26 0 0 0 75 68h4.545a2.26 2.26 0 0 0 2.273-2.25c0-1.242-1.018-2.25-2.273-2.25zM93.182 32a2.26 2.26 0 0 1-2.273-2.25 2.26 2.26 0 0 1 2.273-2.25 2.26 2.26 0 0 1 2.273 2.25A2.26 2.26 0 0 1 93.182 32zm2.273 31.914a6.802 6.802 0 0 0-2.273-.414c-3.766 0-6.818 3.024-6.818 6.75 0 .794.163 1.546.418 2.25H13.218a6.595 6.595 0 0 0 .418-2.25c0-3.726-3.052-6.75-6.818-6.75-.802 0-1.557.162-2.273.414V36.086c.716.254 1.47.414 2.273.414 3.766 0 6.818-3.022 6.818-6.75 0-.794-.163-1.544-.418-2.25h73.564a6.605 6.605 0 0 0-.418 2.25c0 3.728 3.052 6.75 6.818 6.75.8 0 1.559-.16 2.273-.414v27.828zM93.182 72.5a2.26 2.26 0 0 1-2.273-2.25A2.26 2.26 0 0 1 93.182 68a2.26 2.26 0 0 1 2.273 2.25 2.26 2.26 0 0 1-2.273 2.25zm-86.364 0a2.26 2.26 0 0 1-2.273-2.25A2.26 2.26 0 0 1 6.818 68a2.26 2.26 0 0 1 2.273 2.25 2.26 2.26 0 0 1-2.273 2.25zm0-45a2.26 2.26 0 0 1 2.273 2.25A2.26 2.26 0 0 1 6.818 32a2.26 2.26 0 0 1-2.273-2.25 2.26 2.26 0 0 1 2.273-2.25zM95.455 23H4.545C2.036 23 0 25.016 0 27.5v45C0 74.984 2.036 77 4.545 77h90.91c2.509 0 4.545-2.016 4.545-4.5v-45c0-2.484-2.036-4.5-4.545-4.5zM25 32h-4.545a2.26 2.26 0 0 0-2.273 2.25 2.26 2.26 0 0 0 2.273 2.25H25a2.26 2.26 0 0 0 2.273-2.25A2.26 2.26 0 0 0 25 32zm29.9 14.767l-.866 1.98h-8.166c-.025.103-.034.25-.034.434v.711c0 .538.01.857.034.96h7.698l-.832 1.95h-6.7c.266 1.671.834 2.983 1.7 3.932 1 1.177 2.355 1.764 4.066 1.764 1.111 0 2.034-.164 2.766-.495.668-.308 1.423-.825 2.268-1.548v3.436c-1.511.909-3.189 1.364-5.034 1.364-2.977 0-5.3-.847-6.966-2.538-1.445-1.465-2.345-3.436-2.7-5.916h-2.566l.9-1.948h1.498a6.602 6.602 0 0 1-.066-.992c0-.142.005-.309.016-.493.011-.187.03-.394.05-.621h-2.398l.866-1.98H42.2c.555-2.374 1.566-4.253 3.034-5.634 1.711-1.589 3.9-2.388 6.566-2.388 1.934 0 3.911.642 5.934 1.922L56.2 43.484c-1.423-1.319-2.977-1.98-4.666-1.98-1.49 0-2.734.547-3.734 1.64-.843.97-1.411 2.178-1.7 3.623h8.8zM50 32c-10.04 0-18.182 8.06-18.182 18 0 9.943 8.141 18 18.182 18 10.04 0 18.182-8.057 18.182-18 0-9.94-8.141-18-18.182-18z"/>
</svg>
