<svg xmlns="http://www.w3.org/2000/svg" viewBox="0 0 100 100"><defs><style>.cls-1{fill:#fff;}</style></defs><title>ComparaisonBlanc</title><g id="General"><g id="Bar_Chart_2x.png" data-name="Bar Chart@2x.png"><path class="cls-1" d="M15.91,50H2.27A2.27,2.27,0,0,0,0,52.27V97.73A2.27,2.27,0,0,0,2.27,100H15.91a2.27,2.27,0,0,0,2.27-2.27V52.27A2.27,2.27,0,0,0,15.91,50ZM13.64,95.45H4.55V54.55h9.09ZM97.73,0H84.09a2.27,2.27,0,0,0-2.27,2.27V97.73A2.27,2.27,0,0,0,84.09,100H97.73A2.27,2.27,0,0,0,100,97.73V2.27A2.27,2.27,0,0,0,97.73,0ZM95.45,95.45H86.36V4.55h9.09Zm-25-59.09H56.82a2.27,2.27,0,0,0-2.27,2.27V97.73A2.27,2.27,0,0,0,56.82,100H70.45a2.27,2.27,0,0,0,2.27-2.27V38.64A2.27,2.27,0,0,0,70.45,36.36ZM68.18,95.45H59.09V40.91h9.09Zm-25-86.36H29.55a2.27,2.27,0,0,0-2.27,2.27V97.73A2.27,2.27,0,0,0,29.55,100H43.18a2.27,2.27,0,0,0,2.27-2.27V11.36A2.27,2.27,0,0,0,43.18,9.09ZM40.91,95.45H31.82V13.64h9.09Z"/></g></g></svg>