<svg id="Calque_1" data-name="Calque 1" xmlns="http://www.w3.org/2000/svg" viewBox="0 0 100 100"><defs><style>.cls-1{fill:#1781e0;}</style></defs><title>Billet-BleuClair</title><g id="Paper_Euro" data-name="Paper Euro"><path class="cls-1" d="M95.45,22.73H4.55A4.55,4.55,0,0,0,0,27.27V72.73a4.55,4.55,0,0,0,4.55,4.55H95.45A4.55,4.55,0,0,0,100,72.73V27.27A4.55,4.55,0,0,0,95.45,22.73ZM6.82,27.27a2.27,2.27,0,1,1-2.27,2.27A2.27,2.27,0,0,1,6.82,27.27Zm0,45.45a2.27,2.27,0,1,1,2.27-2.27A2.27,2.27,0,0,1,6.82,72.73Zm86.36,0a2.27,2.27,0,1,1,2.27-2.27A2.27,2.27,0,0,1,93.18,72.73Zm2.27-8.67a6.75,6.75,0,0,0-8.67,8.67H13.22a6.74,6.74,0,0,0,.42-2.27,6.82,6.82,0,0,0-6.82-6.82,6.78,6.78,0,0,0-2.27.42V35.95a6.72,6.72,0,0,0,2.27.42,6.75,6.75,0,0,0,6.4-9.09H86.78a6.75,6.75,0,0,0,8.67,8.67ZM93.18,31.82a2.27,2.27,0,1,1,2.27-2.27A2.27,2.27,0,0,1,93.18,31.82ZM25,31.82H20.45a2.27,2.27,0,0,0,0,4.55H25a2.27,2.27,0,0,0,0-4.55ZM79.55,63.64H75a2.27,2.27,0,0,0,0,4.55h4.55a2.27,2.27,0,0,0,0-4.55ZM50,31.82A18.18,18.18,0,1,0,68.18,50,18.18,18.18,0,0,0,50,31.82Zm4.9,14.91-.87,2H45.87a2.15,2.15,0,0,0,0,.44v.72a7.3,7.3,0,0,0,0,1h7.7l-.83,2H46a7.54,7.54,0,0,0,1.7,4,5,5,0,0,0,4.07,1.78,6.66,6.66,0,0,0,2.77-.5,10.26,10.26,0,0,0,2.27-1.56V60a9.52,9.52,0,0,1-5,1.38,9.28,9.28,0,0,1-7-2.56,10.38,10.38,0,0,1-2.7-6H39.57l.9-2H42c0-.15,0-.3,0-.47s0-.34,0-.53,0-.31,0-.5,0-.4,0-.63h-2.4l.87-2H42.2a11.07,11.07,0,0,1,3-5.69,9.22,9.22,0,0,1,6.57-2.41,11,11,0,0,1,5.93,1.94L56.2,43.42a6.7,6.7,0,0,0-4.67-2,4.83,4.83,0,0,0-3.73,1.66,7.8,7.8,0,0,0-1.7,3.66Z"/></g></svg>