<svg id="Calque_1" data-name="Calque 1" xmlns="http://www.w3.org/2000/svg" viewBox="0 0 100 100"><defs><style>.cls-1{fill:#fff;}</style></defs><title>Ampoule-Blanc</title><path class="cls-1" d="M49.89-.25a34.49,34.49,0,0,0-34.45,34.5A34.06,34.06,0,0,0,31,63.22V81h3v9h3v10H63V90h3V81h3V71.85l-.05-8.8A34.52,34.52,0,0,0,49.89-.25ZM65,77H35V72H65ZM41.86,44.5l3.39,3.37,4.65-4.66,4.65,4.65,3.39-3.36L54.41,68h-9ZM65.92,60.32l-.93.6V68H58.36l5.19-34.65-9,9L49.89,37.7l-4.65,4.65-9-9L41.43,68H35V61.06l-1-.57A31,31,0,0,1,19.35,34.25,30.58,30.58,0,1,1,65.92,60.32ZM62,86H38V81H62ZM59,96H41V90H59Z"/></svg>