<svg id="Calque_1" data-name="Calque 1" xmlns="http://www.w3.org/2000/svg" viewBox="0 0 100 100"><defs><style>.cls-1{fill:#01528a;}</style></defs><title>Guide-Bleu-MS</title><g id="Book_2x.png" data-name="Book@2x.png"><path class="cls-1" d="M81.82,0H18.18A9.09,9.09,0,0,0,9.09,9.09V90.91A9.09,9.09,0,0,0,18.18,100H81.82a9.09,9.09,0,0,0,9.09-9.09V9.09A9.09,9.09,0,0,0,81.82,0ZM63.64,4.55h9.09V20.45l-4.55-4.55-4.55,4.55ZM27.27,95.45H18.18a4.54,4.54,0,0,1-4.55-4.55V9.09a4.55,4.55,0,0,1,4.55-4.55h9.09Zm59.09-4.55a4.54,4.54,0,0,1-4.55,4.55h-50V4.55H59.09V31.82l9.09-9.09,9.09,9.09V4.55h4.55a4.55,4.55,0,0,1,4.55,4.55Z"/></g></svg>