<svg id="Calque_1" data-name="Calque 1" xmlns="http://www.w3.org/2000/svg" viewBox="0 0 100 100"><defs><style>.cls-1{fill:#01528a;}</style></defs><title>opportunites-Bleu-MS</title><g id="Megaphone_3" data-name="Megaphone 3"><path class="cls-1" d="M90.91,36.36v-25a6.82,6.82,0,1,0-13.64,0v1.86L11.16,34.61a4.49,4.49,0,0,0-2.07-.52H4.55A4.55,4.55,0,0,0,0,38.64V61.36a4.54,4.54,0,0,0,4.55,4.55H9.09a4.5,4.5,0,0,0,2.07-.52l10.69,3.46L21,71.64a9.09,9.09,0,0,0,5.9,11.42l23.82,7.58a9.09,9.09,0,0,0,11.42-5.91l.83-2.59,14.33,4.64v1.86a6.82,6.82,0,0,0,13.64,0v-25A9.09,9.09,0,0,0,100,54.55V45.45A9.09,9.09,0,0,0,90.91,36.36Zm-81.82,25H4.55V38.64H9.09Zm48.69,22a4.55,4.55,0,0,1-5.71,3L28.25,78.72a4.54,4.54,0,0,1-3-5.71l.88-2.77L58.61,80.74ZM77.27,82,13.63,61.41s0,0,0,0V38.64s0,0,0,0L77.27,18Zm9.09,6.63a2.27,2.27,0,0,1-4.55,0V11.36a2.27,2.27,0,1,1,4.55,0Zm9.09-34.09a4.55,4.55,0,0,1-4.55,4.55V40.91a4.55,4.55,0,0,1,4.55,4.55Z"/></g></svg>