<svg xmlns="http://www.w3.org/2000/svg" viewBox="0 0 100 100"><defs><style>.cls-1{fill:#01528a;}</style></defs><title>Projet02-Bleu-MS</title><g id="Miscellaneous"><g id="Rocket"><path class="cls-1" d="M17.63,55.83,0,100,44.19,82.39a20.54,20.54,0,0,1-2.36.13C28.32,82.52,16.07,69.45,17.63,55.83Zm-9.48,36,8.22-20.6A30.43,30.43,0,0,0,20.45,77a30.94,30.94,0,0,0,8.29,6.61Zm39.58-55.5A2.27,2.27,0,1,0,50,38.64,2.27,2.27,0,0,0,47.73,36.36ZM75,31.82A6.82,6.82,0,1,0,68.19,25,6.82,6.82,0,0,0,75,31.82Zm0-9.09A2.27,2.27,0,1,1,72.74,25,2.27,2.27,0,0,1,75,22.73ZM99.22.77C98.71.25,97.44,0,95.6,0,86,0,60.9,7,47.48,20.41,44.32,23.57,33.83,33.22,31.4,36.48c-7.87,2.16-19.34,6.47-25.73,12.86,0,0,7.8,0,17.32,6.09-1.38,5.64.37,11.59,5.19,16.41a17.9,17.9,0,0,0,12.65,5.65A15.8,15.8,0,0,0,44.6,77c6.06,9.51,6.09,17.31,6.09,17.31,6.39-6.39,10.71-17.84,12.86-25.71,3.27-2.43,12.92-12.91,16.08-16.07C95.63,36.57,102.44,4,99.22.77Zm-40,66.65A76.65,76.65,0,0,1,52.9,83.5a47.1,47.1,0,0,0-4.45-8.91,4.55,4.55,0,0,0-4.92-2,11.29,11.29,0,0,1-2.69.33,13.38,13.38,0,0,1-9.43-4.32c-3.61-3.6-5-7.91-4-12.11a4.54,4.54,0,0,0-2-4.92,47.07,47.07,0,0,0-8.92-4.45A76.57,76.57,0,0,1,32.6,40.86a3.56,3.56,0,0,0,.34-.16L59.33,67.09C59.29,67.2,59.21,67.3,59.17,67.42ZM76.43,49.34c-.9.9-2.32,2.38-4,4.1C69.54,56.5,65,61.21,62.35,63.67l-26-26C38.82,35,43.53,30.51,46.6,27.58c1.72-1.64,3.2-3.06,4.1-4,12.3-12.3,36-19,44.8-19.08C95.48,11.91,89.27,36.5,76.43,49.34ZM61.37,54.55a2.27,2.27,0,1,0-2.27-2.27A2.27,2.27,0,0,0,61.37,54.55Zm-6.82-6.82a2.27,2.27,0,1,0-2.27-2.27A2.27,2.27,0,0,0,54.55,47.73Z"/></g></g></svg>